<?xml version="1.0" encoding="utf-8"?>
<!-- Generator: Adobe Illustrator 16.0.0, SVG Export Plug-In . SVG Version: 6.00 Build 0)  -->
<!DOCTYPE svg PUBLIC "-//W3C//DTD SVG 1.1//EN" "http://www.w3.org/Graphics/SVG/1.1/DTD/svg11.dtd">
<svg version="1.1" id="Layer_1" xmlns="http://www.w3.org/2000/svg" xmlns:xlink="http://www.w3.org/1999/xlink" x="0px" y="0px"
	 width="524.852px" height="285px" viewBox="-152.852 -83 524.852 285" enable-background="new -152.852 -83 524.852 285"
	 xml:space="preserve">
<path fill="#F6F5F7" d="M-138.896-79.683c0,0-3.319,2.81-3.319,7.023c0,4.215-1.567,20.895-3.503,37.485
	c-1.031,8.837-4.242,67.511-3.874,80.502c0.194,6.817-0.05,15.858-0.322,25.957c-0.247,9.147-0.517,19.159-0.507,29.175
	c0.006,6.097-0.203,14.938-0.436,24.785c-0.644,27.168-1.467,62.013,1.542,68.181c3.597,7.375,8.944,8.165,14.845,8.165
	c5.9,0,11.815-1.911,13.275-4.916c1.866-3.841,0.979-10.116,0.141-16.06c-0.445-3.162-0.878-6.226-0.878-8.783
	c0-3.18-0.138-21.863-0.293-43.109c-0.206-28.01-0.444-60.48-0.444-67.768c0-7.712,0.133-22.733,0.239-34.699l0,0
	c0.072-7.922,0.129-14.508,0.129-16.745c0-0.926-0.006-1.945-0.013-3.019c-0.033-5.447-0.077-12.27,0.657-15.065
	c0.638-2.428,3.255,4.373,5.419,9.994c0.654,1.701,1.268,3.293,1.772,4.491c5.625,13.344,16.871,21.507,24.617,24.317
	c7.745,2.808,16.226,4.564,25.814,0c9.588-4.565,14.012-8.252,14.012-8.252s2.489-3.95,2.214,4.039
	c-0.245,7.055,1.325,62.695,2.949,79.711c2.212,23.177,5.624,55.309,14.75,70.319c5.805,9.546,14.909,9.368,19.362,8.43
	c4.977-1.053,9.617-3.963,11.064-7.639c1.658-4.213,1.197-8.777-0.279-11.59c-0.768-1.459-1.737-2.671-2.839-4.045l0,0
	c-1.019-1.271-2.15-2.682-3.337-4.556c-4.886-7.727-12.077-39.066-12.907-62.856c-0.354-10.185-2.212-82.522-1.843-92.706
	c0.368-10.183,2.583-42.84,3.688-51.269c0.595-4.527,1.508-7.23,2.285-9.525c0.668-1.977,1.233-3.65,1.404-5.925
	c0.369-4.917-4.425-10.886-10.695-12.291c-6.27-1.404-12.54-1.755-14.014,3.161c-0.552,1.842-1.26,3.537-1.929,5.138l0,0
	c-1.116,2.674-2.126,5.089-2.126,7.504c0,3.864-4.058,22.474-6.639,33.009C-51.498-18.581-61.454,2.137-68.829,5.298
	c-7.374,3.161-16.595,3.161-23.233-10.885c-6.638-14.048-11.8-31.604-11.8-41.085c0-3.922,0.379-6.462,0.666-8.389
	c0.409-2.735,0.632-4.24-0.666-6.711c-2.212-4.213-8.85-8.779-11.432-9.481c-1.427-0.388-2.855-2.065-4.47-3.962
	c-1.305-1.533-2.732-3.21-4.381-4.465C-127.833-82.491-136.176-83.626-138.896-79.683z M363.825,105.725
	c-2.811-2.21-10.541,0.669-19.737,4.09h-0.004c-4.688,1.748-9.759,3.633-14.753,5.06c-10.238,2.926-19.834,5.532-42.238,0
	c-21.785-7.023-38.374-22.14-38.374-22.14s0.738-1.582,2.396-3.688c2.034-2.583,14.567-23.001,16.411-27.39
	c0.082-0.198,0.172-0.408,0.266-0.624c1.928-4.514,5.259-12.314-4.6-18.514c-10.324-6.497-19.821-9.13-35.679-3.335
	c-15.857,5.793-25.444,22.473-26.922,28.27c-1.474,5.793-1.104,17.031,1.476,20.89c0.898,1.343,1.637,2.344,2.214,3.125
	c1.088,1.471,1.596,2.158,1.474,2.843c-0.184,1.056-4.609,4.567-7.927,5.094c-3.322,0.526-5.9,0.701-6.27-4.214
	c-0.188-2.525,0.156-7.639,0.486-12.542l0,0c0.316-4.651,0.614-9.107,0.437-10.985c-0.369-3.864-10.878-18.437-24.526-23.528
	c-13.642-5.091-24.522-7.199-30.792-1.932c-6.268,5.267-9.035,14.925-12.167,30.022c-3.137,15.102-6.824,20.371-10.88,23.352
	c-0.611,0.451-1.148,0.865-1.631,1.237c-2.727,2.111-3.651,2.827-5.376-0.008c-1.131-1.856-2.601-5.891-3.938-9.555l0,0V91.25
	c-1.066-2.919-2.045-5.603-2.699-6.769c-1.475-2.633-4.978-4.388-8.299-4.916l-0.078-0.011c-3.262-0.519-4.536-0.72-5.084-4.377
	c-0.552-3.688-2.767-13.344-11.984-18.963c-9.22-5.62-24.524-7.199-36.511-0.702c-7.598,4.118-20.281,12.289-25.26,29.319
	c-5.196,17.777-3.012,35.499,2.765,45.652c7.192,12.643,21.574,16.504,34.481,14.397c12.012-1.961,20.097-6.67,26.367-11.587
	c2.351-1.843,3.873-3.393,5.012-4.551c1.896-1.928,2.732-2.782,4.576-2.121c1.222,0.437,2.38,1.174,3.699,2.014l0,0
	c1.863,1.187,4.048,2.576,7.178,3.603c5.347,1.758,12.539,3.161,21.573-1.053c9.037-4.215,21.02-16.327,25.63-34.765
	c4.611-18.435,7.008-26.163,9.958-26.686c2.952-0.527,8.482,2.282,9.958,6.321c1.475,4.038,1.288,9.482,0.921,15.451
	c-0.37,5.969-0.45,17.266,5.896,25.456c5.718,7.377,15.308,13.697,32.642,6.5c13.003-5.4,18.637-8.824,21.262-10.42
	c0.873-0.532,1.418-0.862,1.785-0.992c1.476-0.528,3.32-0.351,5.532,0.701c0.246,0.116,0.716,0.36,1.382,0.707l0.006,0.002
	c5.411,2.811,23.81,12.371,40.542,15.496c18.808,3.511,26.115,3.539,40.829,1.407c12.726-1.842,24.819-7.401,32.382-11.263
	c0.254-0.131,0.512-0.263,0.774-0.396c0.221-0.112,0.446-0.227,0.676-0.343C356.713,114.489,367.806,108.857,363.825,105.725z
	 M74.29,88.521c-0.207,2.479-0.551,4.387-0.833,5.942C73.203,95.876,72.998,97,72.998,98c0,1.407-0.492,1.875-1.199,2.551l0,0
	c-0.357,0.336-0.767,0.726-1.196,1.314c-0.673,0.914-0.694,1.688-0.718,2.488c-0.022,0.738-0.043,1.503-0.574,2.428
	c-0.067,0.117-0.15,0.273-0.251,0.464c-1.569,2.917-7.403,13.77-22.796,13.933c-4.418,0.05-9.035-2.455-10.879-5.967
	c-1.843-3.512-3.979-17.875,3.135-30.904c6.839-12.522,14.064-15.041,17.718-16.315c0.189-0.066,0.368-0.127,0.537-0.19
	c4.36-1.555,7.729-1.169,11.248,0.878C74.658,72.542,74.842,81.851,74.29,88.521z M233.001,75.765L233.001,75.765
	c-0.354,0.401-0.651,0.739-0.877,0.992c-0.233,0.27-0.455,0.53-0.659,0.777c-1.413,1.672-2.3,2.731-4.727,2.366
	c-2.78-0.418-1.318-8.084,0.147-11.849c1.464-3.765,4.718-8.683,13.354-14.119c8.638-5.436,6.699,2.551,4.649,6.732
	C243.056,64.4,235.981,72.396,233.001,75.765z M48.72,166.688v27.033h3.007v-8.096l1.469-3.664l3.396,11.758h3.025l-4.495-15.188
	l4.14-11.843h-3.227l-2.027,5.979l-2.01,7.146h-0.643l0.456-6.691l0.034-6.437H48.72V166.688z M96.146,192.824
	c0.799,0.765,2.094,1.147,3.885,1.147c1.802,0,3.092-0.383,3.87-1.147c0.788-0.777,1.205-2.057,1.249-3.837
	c0.023-1.486,0.045-2.956,0.069-4.408c0.022-1.453,0.034-2.907,0.034-4.358c0-1.456-0.012-2.914-0.034-4.376
	c-0.023-1.464-0.045-2.941-0.069-4.425c-0.044-1.792-0.461-3.069-1.249-3.837c-0.778-0.767-2.068-1.148-3.87-1.148
	c-1.792,0-3.086,0.382-3.885,1.148c-0.789,0.765-1.2,2.045-1.233,3.837c-0.023,1.483-0.045,2.961-0.067,4.425
	c-0.012,1.454-0.017,2.905-0.017,4.359c0,1.452,0.005,2.909,0.017,4.375c0.022,1.452,0.044,2.922,0.067,4.408
	C94.946,190.768,95.358,192.047,96.146,192.824z M101.67,191.031c-0.338,0.316-0.883,0.474-1.639,0.474
	c-0.731,0-1.273-0.157-1.622-0.474c-0.337-0.313-0.518-0.831-0.541-1.554c-0.033-1.529-0.068-3.072-0.1-4.628
	c-0.024-1.566-0.035-3.13-0.035-4.698c0-1.576,0.011-3.138,0.035-4.679c0.023-1.543,0.055-3.059,0.1-4.544
	c0.022-0.724,0.204-1.239,0.541-1.555c0.349-0.326,0.891-0.492,1.622-0.492c0.745,0,1.284,0.166,1.623,0.492
	c0.349,0.314,0.53,0.831,0.541,1.555c0.045,1.485,0.079,3.001,0.103,4.544c0.021,1.541,0.033,3.103,0.033,4.679
	c0,1.568-0.011,3.132-0.033,4.698c-0.024,1.556-0.058,3.099-0.103,4.628C102.183,190.2,102.009,190.719,101.67,191.031z
	 M103.53,162.53h-1.301c-0.012,0.36-0.067,0.638-0.169,0.828c-0.102,0.193-0.282,0.288-0.541,0.288
	c-0.246,0-0.456-0.068-0.625-0.202c-0.158-0.138-0.321-0.289-0.49-0.459c-0.158-0.168-0.361-0.313-0.607-0.438
	c-0.248-0.135-0.581-0.203-0.996-0.203c-0.632,0-1.126,0.229-1.488,0.693c-0.362,0.45-0.579,1.152-0.66,2.112h1.285
	c0.046-0.385,0.129-0.678,0.253-0.88s0.322-0.305,0.593-0.305c0.279,0,0.512,0.067,0.69,0.205c0.182,0.121,0.35,0.276,0.507,0.455
	c0.169,0.169,0.372,0.32,0.608,0.456c0.238,0.124,0.558,0.187,0.964,0.187c0.619,0,1.099-0.225,1.436-0.675
	C103.327,164.132,103.506,163.444,103.53,162.53z M146.869,166.688h-4.732v27.033h2.958v-10.02h1.773l2.499,10.02h3.143
	l-2.838-10.526c0.775-0.327,1.349-0.85,1.724-1.571c0.371-0.719,0.58-1.674,0.625-2.855c0.033-0.776,0.055-1.537,0.066-2.281
	c0.012-0.753,0.012-1.525,0-2.313c-0.009-0.788-0.033-1.64-0.066-2.552c-0.069-1.767-0.502-3.028-1.302-3.784
	C149.92,167.07,148.637,166.688,146.869,166.688z M146.833,181.064h-1.74v-11.742h1.774c0.741,0,1.282,0.176,1.62,0.524
	c0.349,0.35,0.54,0.892,0.574,1.621c0.034,0.812,0.055,1.633,0.068,2.469c0.011,0.832,0.011,1.669,0,2.517
	c-0.012,0.834-0.034,1.649-0.068,2.452c-0.035,0.73-0.226,1.275-0.574,1.637C148.142,180.892,147.588,181.064,146.833,181.064z
	 M190.973,169.322v24.398h2.941v-24.398h3.665v-2.634h-10.271v2.634H190.973z M234.104,192.808c0.777,0.777,2.056,1.167,3.836,1.167
	c1.768,0,3.04-0.39,3.817-1.167c0.776-0.788,1.2-2.08,1.27-3.872c0.01-0.516,0.021-0.978,0.032-1.381
	c0.013-0.417,0.018-0.844,0.018-1.268c0-0.43-0.012-0.936-0.034-1.521c-0.032-1.047-0.156-1.943-0.371-2.687
	c-0.215-0.755-0.587-1.377-1.113-1.859c-0.532-0.497-1.286-0.855-2.266-1.08l-1.858-0.457c-0.654-0.16-1.092-0.476-1.318-0.945
	c-0.216-0.475-0.34-1.14-0.372-1.995c-0.045-0.8-0.074-1.601-0.084-2.401c0-0.797,0.028-1.591,0.084-2.382
	c0.045-0.708,0.23-1.232,0.559-1.568c0.325-0.339,0.86-0.51,1.605-0.51c0.707,0,1.236,0.17,1.586,0.51
	c0.35,0.337,0.541,0.86,0.575,1.568c0.034,0.882,0.046,1.764,0.034,2.654c-0.011,0.877-0.034,1.756-0.068,2.635h2.837
	c0.034-0.901,0.058-1.778,0.067-2.635c0.013-0.858,0.008-1.578-0.017-2.164c-0.068-1.791-0.49-3.073-1.265-3.85
	c-0.769-0.78-2.007-1.166-3.718-1.166c-1.231,0-2.215,0.168-2.959,0.508c-0.743,0.325-1.282,0.86-1.62,1.606
	c-0.339,0.731-0.532,1.686-0.574,2.871c-0.011,0.721-0.022,1.452-0.033,2.196c0,0.743,0.006,1.453,0.018,2.13
	c0.032,1.058,0.156,1.96,0.371,2.703c0.213,0.744,0.573,1.35,1.081,1.822c0.517,0.46,1.25,0.812,2.195,1.046l2.012,0.526
	c0.62,0.156,1.036,0.501,1.248,1.029c0.227,0.519,0.356,1.146,0.391,1.895c0.034,0.618,0.057,1.176,0.068,1.671
	c0.01,0.484,0.01,0.962,0,1.436c-0.012,0.461-0.034,0.98-0.068,1.553c-0.057,0.712-0.248,1.235-0.575,1.574
	c-0.314,0.336-0.834,0.506-1.554,0.506c-0.754,0-1.306-0.17-1.655-0.506c-0.351-0.339-0.541-0.862-0.575-1.574
	c-0.056-0.878-0.085-1.783-0.085-2.72c0.013-0.946,0.042-1.896,0.085-2.853h-2.805c-0.032,0.616-0.063,1.196-0.083,1.74
	c-0.012,0.536-0.019,1.077-0.019,1.62c0.007,0.199,0.008,0.404,0.016,0.612c0.005,0.356,0.01,0.729,0.018,1.108
	C232.915,190.728,233.339,192.02,234.104,192.808z M282.629,166.688h-2.959v27.033h2.959V166.688z M324.479,166.688h-4.713v27.033
	h2.856l-0.222-10.173l-0.49-14.242h0.847l1.79,14.935l1.775,9.48h4.899v-27.033h-2.872l0.203,10.068l0.541,14.329h-0.798
	l-2.196-15.83L324.479,166.688z M371.327,166.688h-2.958v27.033h2.958V166.688z"/>
</svg>
