<svg width="1920" height="337" viewBox="0 0 1920 337" fill="none" xmlns="http://www.w3.org/2000/svg">
<path fill-rule="evenodd" clip-rule="evenodd" d="M1771.01 178.205C1814.29 163.298 1857.01 148.585 1920 146.839V175.79C1869.97 170.776 1800.44 186.19 1748.95 197.604C1741.05 199.355 1733.58 201.011 1726.67 202.485C1673.33 213.86 1582.22 223.704 1508.15 217.037C1464.52 213.11 1438.88 204.044 1408.97 193.471C1388.11 186.093 1365.17 177.981 1332.59 170.37C1278.57 157.748 1260 162.222 1207.41 177.037C1179.14 184.998 1149.76 198.896 1111.1 217.177C1105.16 219.987 1099 222.901 1092.59 225.913C1092.34 226.042 1092.09 226.168 1091.84 226.293C1091.59 226.42 1091.35 226.544 1091.11 226.667C1083.15 230.731 1070.42 236.579 1057.04 238.518C1041.55 240.762 1033.86 240.732 1014.07 237.037C996.465 233.749 977.106 223.691 971.411 220.732L971.41 220.731C970.704 220.365 970.209 220.107 969.952 219.985C967.624 218.876 965.684 218.692 964.131 219.246C963.743 219.384 963.174 219.731 962.253 220.29C959.489 221.97 953.56 225.573 939.878 231.255C921.64 238.83 911.55 232.179 905.535 224.419C898.854 215.8 898.939 203.912 899.327 197.63C899.715 191.348 899.909 185.621 898.357 181.372C896.804 177.123 890.984 174.167 887.879 174.721C884.775 175.275 882.253 183.404 877.402 202.803C872.552 222.202 859.94 234.95 850.433 239.384C840.926 243.818 833.359 242.34 827.732 240.492C824.437 239.41 822.139 237.948 820.178 236.699C818.79 235.816 817.571 235.04 816.285 234.581C814.345 233.888 813.466 234.782 811.47 236.813C810.271 238.032 808.67 239.66 806.196 241.601C799.599 246.774 791.091 251.73 778.45 253.794C764.869 256.012 749.735 251.947 742.168 238.645C736.091 227.962 733.79 209.312 739.258 190.609C744.496 172.689 757.843 164.09 765.839 159.756C778.451 152.92 794.554 154.583 804.256 160.495C813.957 166.407 816.285 176.568 816.868 180.448C817.445 184.297 818.786 184.51 822.217 185.054L822.3 185.067C825.792 185.622 829.479 187.469 831.031 190.24C831.719 191.468 832.75 194.293 833.87 197.364L833.871 197.365L833.871 197.366C835.279 201.223 836.828 205.468 838.016 207.422C839.83 210.405 840.803 209.652 843.674 207.432L843.674 207.431C844.182 207.039 844.748 206.601 845.389 206.129C849.657 202.989 853.538 197.446 856.837 181.557C860.135 165.668 863.045 155.507 869.642 149.964C876.239 144.422 887.686 146.639 902.044 151.997C916.401 157.355 927.461 172.689 927.849 176.753C928.038 178.731 927.721 183.421 927.391 188.312C927.043 193.472 926.679 198.854 926.879 201.51C927.267 206.683 929.983 206.498 933.475 205.944C936.968 205.39 941.624 201.695 941.819 200.586C941.946 199.863 941.411 199.139 940.269 197.594L940.269 197.594C939.661 196.771 938.881 195.717 937.938 194.305C935.222 190.241 934.833 178.416 936.386 172.319C937.938 166.223 948.027 148.671 964.713 142.574C981.4 136.477 991.391 139.249 1002.26 146.084C1012.63 152.609 1009.12 160.816 1007.09 165.566L1007.01 165.77L1006.94 165.931C1006.9 166.03 1006.86 166.127 1006.82 166.222C1004.88 170.841 991.689 192.326 989.549 195.043C987.802 197.26 987.026 198.923 987.026 198.923C987.026 198.923 1004.48 214.83 1027.41 222.222C1044.45 226.431 1054.45 226.162 1062.76 224.526C1075.79 221.194 1092.89 213.854 1113.25 205.115C1163 183.767 1232.19 154.074 1308.89 154.074C1341.43 154.074 1371.26 164.059 1405.97 175.673C1454.2 191.818 1511.85 211.111 1599.26 211.111C1675.46 211.111 1723.58 194.541 1771.01 178.205ZM579.154 17.4974C579.154 17.4974 575.662 20.4533 575.662 24.8873C575.662 29.3214 574.013 46.8729 571.976 64.332C570.891 73.6296 567.513 135.369 567.901 149.04C568.105 156.215 567.848 165.728 567.561 176.354C567.302 185.978 567.017 196.515 567.028 207.053C567.034 213.469 566.814 222.771 566.569 233.135C565.893 261.72 565.026 298.385 568.192 304.879C571.976 312.638 577.602 313.469 583.811 313.469C590.02 313.469 596.244 311.46 597.781 308.296C599.745 304.255 598.813 297.652 597.929 291.396C597.46 288.073 597.005 284.846 597.005 282.154C597.005 278.807 596.86 259.15 596.696 236.794L596.696 236.793L596.696 236.79L596.696 236.783L596.696 236.778C596.479 207.307 596.229 173.151 596.229 165.483C596.229 157.369 596.369 141.567 596.481 128.975L596.481 128.973L596.481 128.972L596.481 128.971C596.555 120.634 596.617 113.706 596.617 111.351C596.617 110.378 596.61 109.306 596.603 108.177V108.177V108.176V108.176C596.568 102.445 596.523 95.2648 597.296 92.3218C597.966 89.7688 600.72 96.9234 602.997 102.838L602.998 102.839C603.687 104.628 604.332 106.304 604.862 107.564C610.78 121.605 622.616 130.196 630.765 133.152C638.914 136.107 647.838 137.955 657.928 133.152C668.018 128.348 672.674 124.469 672.674 124.469C672.674 124.469 675.293 120.312 675.002 128.718C674.745 136.141 676.397 194.687 678.106 212.595C680.434 236.982 684.024 270.792 693.628 286.588C699.735 296.632 709.315 296.448 714.001 295.456C719.239 294.348 724.119 291.288 725.642 287.42C727.388 282.986 726.903 278.182 725.351 275.226C724.544 273.688 723.522 272.414 722.361 270.967L722.361 270.966L722.361 270.966L722.361 270.966L722.36 270.965C721.29 269.63 720.1 268.147 718.852 266.173C713.71 258.044 706.143 225.066 705.27 200.032C704.896 189.315 702.941 113.198 703.33 102.483C703.718 91.7676 706.046 57.4038 707.21 48.5357C707.836 43.7717 708.797 40.9272 709.613 38.5127L709.613 38.5126L709.613 38.5124L709.613 38.5123C710.316 36.4324 710.911 34.6716 711.091 32.2778C711.479 27.1049 706.434 20.823 699.838 19.3453C693.241 17.8677 686.644 17.498 685.092 22.6709C684.511 24.6092 683.766 26.3919 683.061 28.0773C681.886 30.8899 680.824 33.4316 680.824 35.973C680.824 40.0373 676.555 59.6214 673.839 70.7065C671.122 81.7916 660.645 103.593 652.884 106.918C645.124 110.244 635.422 110.244 628.437 95.4634C621.453 80.6831 616.02 62.2081 616.02 52.2315C616.02 48.1054 616.418 45.4329 616.721 43.4038C617.15 40.5266 617.386 38.9429 616.02 36.3427C613.692 31.9086 606.707 27.1049 603.991 26.3661C602.488 25.9575 600.986 24.193 599.287 22.1972C597.914 20.5839 596.412 18.8195 594.677 17.498C590.797 14.5416 582.018 13.3488 579.154 17.4974ZM802.605 200.743L802.604 200.743C802.336 202.229 802.122 203.411 802.122 204.466C802.122 205.944 801.605 206.436 800.857 207.148C800.484 207.504 800.053 207.915 799.6 208.531C798.893 209.493 798.869 210.304 798.845 211.148C798.823 211.925 798.799 212.729 798.241 213.703C798.171 213.827 798.083 213.99 797.976 214.189L797.976 214.189C796.325 217.26 790.187 228.68 773.988 228.853C769.338 228.903 764.481 226.267 762.541 222.572C760.6 218.876 758.353 203.763 765.839 190.056C773.035 176.878 780.638 174.227 784.484 172.887L784.486 172.886L784.51 172.878C784.614 172.841 784.715 172.806 784.813 172.772L784.925 172.732L785.048 172.689C789.635 171.051 793.181 171.459 796.883 173.613C803.868 177.677 804.062 187.469 803.48 194.489C803.264 197.098 802.901 199.104 802.605 200.742L802.605 200.743L802.605 200.743ZM982.992 165.178C981.066 169.109 973.621 177.523 970.485 181.067L970.478 181.074L970.454 181.102C970.094 181.509 969.792 181.85 969.564 182.111C969.315 182.395 969.085 182.669 968.866 182.928C967.383 184.688 966.446 185.8 963.895 185.416C960.969 184.976 962.509 176.91 964.049 172.951C965.589 168.992 969.015 163.813 978.102 158.093C987.188 152.374 985.148 160.778 982.992 165.178ZM776.002 274.43V293.63H778.138V287.882L779.182 285.278L781.594 293.63H783.742L780.55 282.842L783.49 274.43H781.198L779.758 278.678L778.33 283.754H777.874L778.198 279.002L778.222 274.43H776.002ZM809.689 292.994C810.257 293.538 811.177 293.81 812.449 293.81C813.729 293.81 814.645 293.538 815.197 292.994C815.757 292.442 816.053 291.534 816.085 290.27C816.101 289.214 816.117 288.17 816.133 287.138C816.149 286.106 816.157 285.074 816.157 284.042C816.157 283.01 816.149 281.974 816.133 280.934C816.117 279.894 816.101 278.846 816.085 277.79C816.053 276.518 815.757 275.61 815.197 275.066C814.645 274.522 813.729 274.25 812.449 274.25C811.177 274.25 810.257 274.522 809.689 275.066C809.129 275.61 808.837 276.518 808.813 277.79C808.797 278.846 808.781 279.894 808.765 280.934C808.757 281.966 808.753 282.998 808.753 284.03C808.753 285.062 808.757 286.098 808.765 287.138C808.781 288.17 808.797 289.214 808.813 290.27C808.837 291.534 809.129 292.442 809.689 292.994ZM813.613 291.722C813.373 291.946 812.985 292.058 812.449 292.058C811.929 292.058 811.545 291.946 811.297 291.722C811.057 291.498 810.929 291.13 810.913 290.618C810.889 289.53 810.865 288.434 810.841 287.33C810.825 286.218 810.817 285.106 810.817 283.994C810.817 282.874 810.825 281.766 810.841 280.67C810.857 279.574 810.881 278.498 810.913 277.442C810.929 276.93 811.057 276.562 811.297 276.338C811.545 276.106 811.929 275.99 812.449 275.99C812.977 275.99 813.361 276.106 813.601 276.338C813.849 276.562 813.977 276.93 813.985 277.442C814.017 278.498 814.041 279.574 814.057 280.67C814.073 281.766 814.081 282.874 814.081 283.994C814.081 285.106 814.073 286.218 814.057 287.33C814.041 288.434 814.017 289.53 813.985 290.618C813.977 291.13 813.853 291.498 813.613 291.722ZM814.933 271.478H814.009C814.001 271.734 813.961 271.93 813.889 272.066C813.817 272.202 813.689 272.27 813.505 272.27C813.329 272.27 813.181 272.222 813.061 272.126C812.949 272.03 812.833 271.922 812.713 271.802C812.601 271.682 812.457 271.578 812.281 271.49C812.105 271.394 811.869 271.346 811.573 271.346C811.125 271.346 810.773 271.51 810.517 271.838C810.261 272.158 810.105 272.658 810.049 273.338H810.961C810.993 273.066 811.053 272.858 811.141 272.714C811.229 272.57 811.369 272.498 811.561 272.498C811.761 272.498 811.925 272.546 812.053 272.642C812.181 272.73 812.301 272.838 812.413 272.966C812.533 273.086 812.677 273.194 812.845 273.29C813.013 273.378 813.241 273.422 813.529 273.422C813.969 273.422 814.309 273.262 814.549 272.942C814.789 272.614 814.917 272.126 814.933 271.478ZM845.714 274.43H842.354V293.63H844.454V286.514H845.714L847.49 293.63H849.722L847.706 286.154C848.258 285.922 848.666 285.55 848.93 285.038C849.194 284.526 849.342 283.85 849.374 283.01C849.398 282.458 849.414 281.918 849.422 281.39C849.43 280.854 849.43 280.306 849.422 279.746C849.414 279.186 849.398 278.582 849.374 277.934C849.326 276.678 849.018 275.782 848.45 275.246C847.882 274.702 846.97 274.43 845.714 274.43ZM845.69 284.642H844.454V276.302H845.714C846.242 276.302 846.626 276.426 846.866 276.674C847.114 276.922 847.25 277.306 847.274 277.826C847.298 278.402 847.314 278.986 847.322 279.578C847.33 280.17 847.33 280.766 847.322 281.366C847.314 281.958 847.298 282.538 847.274 283.106C847.25 283.626 847.114 284.014 846.866 284.27C846.618 284.518 846.226 284.642 845.69 284.642ZM877.043 276.302V293.63H879.131V276.302H881.735V274.43H874.439V276.302H877.043ZM907.677 292.982C908.229 293.534 909.137 293.81 910.401 293.81C911.657 293.81 912.561 293.534 913.113 292.982C913.665 292.422 913.965 291.506 914.013 290.234C914.021 289.866 914.029 289.538 914.037 289.25C914.04 289.114 914.043 288.978 914.045 288.841C914.048 288.678 914.049 288.515 914.049 288.35C914.049 288.046 914.041 287.686 914.025 287.27C914.001 286.526 913.913 285.89 913.761 285.362C913.609 284.826 913.345 284.386 912.969 284.042C912.593 283.69 912.057 283.434 911.361 283.274L910.041 282.95C909.577 282.838 909.265 282.614 909.105 282.278C908.953 281.942 908.865 281.47 908.841 280.862C908.809 280.294 908.789 279.726 908.781 279.158C908.781 278.59 908.801 278.026 908.841 277.466C908.873 276.962 909.005 276.59 909.237 276.35C909.469 276.11 909.849 275.99 910.377 275.99C910.881 275.99 911.257 276.11 911.505 276.35C911.753 276.59 911.889 276.962 911.913 277.466C911.937 278.09 911.945 278.718 911.937 279.35C911.929 279.974 911.913 280.598 911.889 281.222H913.905C913.929 280.582 913.945 279.958 913.953 279.35C913.961 278.742 913.957 278.23 913.941 277.814C913.893 276.542 913.593 275.63 913.041 275.078C912.497 274.526 911.617 274.25 910.401 274.25C909.529 274.25 908.829 274.37 908.301 274.61C907.773 274.842 907.389 275.222 907.149 275.75C906.909 276.27 906.773 276.95 906.741 277.79C906.733 278.302 906.725 278.822 906.717 279.35C906.717 279.878 906.721 280.382 906.729 280.862C906.753 281.614 906.841 282.254 906.993 282.782C907.145 283.31 907.401 283.742 907.761 284.078C908.129 284.406 908.649 284.654 909.321 284.822L910.749 285.194C911.189 285.306 911.485 285.55 911.637 285.926C911.797 286.294 911.889 286.742 911.913 287.27C911.937 287.71 911.953 288.106 911.961 288.458C911.969 288.802 911.969 289.142 911.961 289.478C911.953 289.806 911.937 290.174 911.913 290.582C911.873 291.086 911.737 291.458 911.505 291.698C911.281 291.938 910.913 292.058 910.401 292.058C909.865 292.058 909.473 291.938 909.225 291.698C908.977 291.458 908.841 291.086 908.817 290.582C908.777 289.958 908.757 289.314 908.757 288.65C908.765 287.978 908.785 287.302 908.817 286.622H906.825C906.801 287.062 906.781 287.474 906.765 287.858C906.757 288.242 906.753 288.626 906.753 289.01C906.761 289.394 906.769 289.802 906.777 290.234C906.833 291.506 907.133 292.422 907.677 292.982ZM942.141 274.43H940.041V293.63H942.141V274.43ZM971.866 274.43H968.518V293.63H970.546L970.39 286.406L970.042 276.29H970.642L971.914 286.898L973.174 293.63H976.654V274.43H974.614L974.758 281.582L975.142 291.758H974.578L973.018 280.514L971.866 274.43ZM1005.14 274.43H1003.04V293.63H1005.14V274.43Z" fill="#F6F5F7"/>
</svg>
