<svg width="18" height="12" viewBox="0 0 18 12" fill="none" xmlns="http://www.w3.org/2000/svg">
<path d="M14.8349 8.48535C12.8534 8.48535 11.8343 9.03889 11.0155 9.48371C10.4097 9.8128 9.97202 10.0506 9.16431 10.0506C8.16476 10.0506 7.44993 9.73858 6.62227 9.37747C5.80956 9.02278 4.88834 8.62074 3.69558 8.58594C2.25265 8.5434 0.729882 9.11558 0 9.4342V11.4421L0.516218 11.1791C0.989491 10.9379 2.4712 10.3187 3.63324 10.3532C4.41652 10.3761 5.04884 10.652 5.78106 10.9716C6.69099 11.3686 7.72243 11.8188 9.16436 11.8188C10.5086 11.8188 11.3077 11.3847 12.0127 11.0017C12.7517 10.6003 13.39 10.2535 14.835 10.2535C15.7513 10.2535 17.1205 10.7791 17.5699 10.9812L17.9999 11.1755V9.2152C17.3179 8.94533 15.9864 8.48535 14.8349 8.48535Z" fill="#00D1FF"/>
<path d="M14.8349 4.24268C12.8534 4.24268 11.8343 4.79621 11.0156 5.24104C10.4098 5.57012 9.97208 5.80781 9.16436 5.80781C8.16481 5.80781 7.44999 5.49591 6.62233 5.1347C5.80961 4.78005 4.8884 4.37802 3.69558 4.34326C2.25287 4.30163 0.729938 4.87341 0 5.19173V7.19947L0.516217 6.93641C0.989546 6.69518 2.4727 6.07627 3.63324 6.11052C4.41651 6.13331 5.04884 6.4093 5.78106 6.72878C6.69099 7.12591 7.72243 7.57599 9.16436 7.57599C10.5086 7.57599 11.3077 7.14193 12.0127 6.75899C12.7517 6.35761 13.3899 6.01085 14.835 6.01085C15.7513 6.01085 17.1205 6.5364 17.5699 6.73853L17.9999 6.93283V4.97253C17.318 4.70265 15.9865 4.24268 14.8349 4.24268Z" fill="#00D1FF"/>
<path d="M14.8349 0C12.8534 0 11.8343 0.553539 11.0155 0.998311C10.4097 1.32739 9.97202 1.56514 9.16431 1.56514C8.16476 1.56514 7.44993 1.25323 6.62227 0.892018C5.80956 0.537322 4.88834 0.135341 3.69558 0.100533C2.25265 0.0585008 0.729882 0.63048 0 0.948903V2.95669L0.516218 2.69359C0.989491 2.45246 2.4712 1.83329 3.63324 1.8678C4.41652 1.89058 5.04884 2.16657 5.78106 2.48605C6.69099 2.88318 7.72243 3.33326 9.16436 3.33326C10.5086 3.33326 11.3077 2.8992 12.0127 2.51626C12.7517 2.11484 13.39 1.76812 14.835 1.76812C15.7513 1.76812 17.1205 2.29362 17.5699 2.4958L17.9999 2.6901V0.729751C17.3179 0.460029 15.9864 0 14.8349 0Z" fill="#00D1FF"/>
</svg>
