<svg width="18" height="12" viewBox="0 0 18 12" fill="none" xmlns="http://www.w3.org/2000/svg">
<path d="M14.8349 8.48529C12.8534 8.48529 11.8343 9.03883 11.0156 9.48365C10.4098 9.81273 9.97208 10.0505 9.16437 10.0505C8.16482 10.0505 7.44999 9.73852 6.62233 9.37741C5.80962 9.02271 4.88841 8.62068 3.69564 8.58587C2.25271 8.54334 0.729943 9.11552 6.10352e-05 9.43414V11.4421L0.516279 11.179C0.989553 10.9378 2.47126 10.3186 3.63331 10.3531C4.41658 10.376 5.0489 10.652 5.78112 10.9715C6.69106 11.3685 7.72249 11.8187 9.16442 11.8187C10.5086 11.8187 11.3077 11.3846 12.0128 11.0016C12.7518 10.6002 13.3901 10.2535 14.835 10.2535C15.7514 10.2535 17.1205 10.779 17.57 10.9811L18 11.1754V9.21514C17.318 8.94527 15.9865 8.48529 14.8349 8.48529Z" fill="#F6F5F7"/>
<path d="M14.8349 4.24261C12.8534 4.24261 11.8343 4.79615 11.0156 5.24098C10.4098 5.57006 9.97208 5.80775 9.16436 5.80775C8.16482 5.80775 7.44999 5.49585 6.62233 5.13463C5.80961 4.77999 4.8884 4.37796 3.69558 4.3432C2.25287 4.30157 0.729938 4.87335 0 5.19167V7.19941L0.516217 6.93635C0.989546 6.69512 2.4727 6.07621 3.63324 6.11046C4.41651 6.13325 5.04884 6.40923 5.78106 6.72872C6.69099 7.12585 7.72243 7.57593 9.16436 7.57593C10.5086 7.57593 11.3077 7.14186 12.0127 6.75893C12.7517 6.35755 13.3899 6.01079 14.835 6.01079C15.7513 6.01079 17.1205 6.53634 17.5699 6.73847L17.9999 6.93277V4.97247C17.318 4.70259 15.9865 4.24261 14.8349 4.24261Z" fill="#F6F5F7"/>
<path d="M14.835 0C12.8535 0 11.8344 0.553539 11.0156 0.998311C10.4098 1.32739 9.97213 1.56514 9.16441 1.56514C8.16487 1.56514 7.45004 1.25323 6.62238 0.892018C5.80967 0.537322 4.88845 0.135341 3.69568 0.100533C2.25275 0.0585008 0.729989 0.63048 0.000106812 0.948903V2.95669L0.516325 2.69359C0.989598 2.45246 2.47131 1.83329 3.63335 1.8678C4.41662 1.89058 5.04895 2.16657 5.78117 2.48605C6.6911 2.88318 7.72254 3.33326 9.16447 3.33326C10.5087 3.33326 11.3078 2.8992 12.0128 2.51626C12.7518 2.11484 13.3901 1.76812 14.8351 1.76812C15.7514 1.76812 17.1206 2.29362 17.57 2.4958L18 2.6901V0.729751C17.318 0.460029 15.9865 0 14.835 0Z" fill="#F6F5F7"/>
</svg>
