<svg width="96" height="62" viewBox="0 0 96 62" fill="none" xmlns="http://www.w3.org/2000/svg">
<g opacity="0.75">
<path fill-rule="evenodd" clip-rule="evenodd" d="M9.90496 8.40568C9.90496 8.40568 9.40205 8.85268 9.40205 9.52323C9.40205 10.1938 9.16459 12.848 8.87123 15.4883C8.715 16.8943 8.2286 26.231 8.28451 28.2985C8.34041 30.366 8.15551 33.7182 8.15878 37.0714C8.1623 40.7176 7.70516 50.5272 8.32642 51.8653C8.87123 53.0388 9.6815 53.1644 10.5756 53.1644C11.4697 53.1644 12.3659 52.8606 12.5872 52.3821C13.0202 51.4462 12.4754 49.6022 12.4754 48.4288C12.4754 47.2553 12.3637 32.8245 12.3637 30.785C12.3637 28.7455 12.4196 23.4929 12.4196 22.5988C12.4196 21.7047 12.3841 20.2539 12.5173 19.7211C12.643 19.2182 13.278 21.2061 13.6069 22.0261C14.459 24.1495 16.1634 25.4486 17.3368 25.8956C18.5103 26.3426 19.7955 26.6221 21.2484 25.8956C22.7013 25.1692 23.3717 24.5826 23.3717 24.5826C23.3717 24.5826 23.7489 23.9539 23.707 25.2251C23.67 26.3477 23.9079 35.2015 24.154 37.9095C24.4893 41.5976 25.0062 46.7105 26.3892 49.0993C27.2686 50.6183 28.6481 50.5903 29.3228 50.4404C30.0772 50.2728 30.7798 49.81 30.9992 49.225C31.2506 48.5545 31.1808 47.8281 30.9573 47.381C30.7337 46.934 30.3962 46.6342 30.0214 46.012C29.2809 44.7827 28.1913 39.7955 28.0655 36.0097C28.0117 34.3891 27.7303 22.8782 27.7862 21.2577C27.8421 19.6373 28.1774 14.4406 28.345 13.0995C28.5126 11.7584 28.8479 11.4231 28.9038 10.6409C28.9597 9.85859 28.2333 8.90859 27.2834 8.68513C26.3334 8.46167 25.3835 8.40577 25.16 9.18804C24.9365 9.97031 24.5454 10.585 24.5454 11.1997C24.5454 11.8143 23.9307 14.7759 23.5395 16.4523C23.1484 18.1287 21.6396 21.4255 20.5221 21.9285C19.4046 22.4314 18.0076 22.4314 17.0017 20.1962C15.9959 17.961 15.2137 15.1671 15.2137 13.6584C15.2137 12.1497 15.5489 11.9261 15.2137 11.2556C14.8784 10.585 13.8726 9.85859 13.4814 9.74686C13.0902 9.63513 12.6991 8.85285 12.1403 8.40577C11.5815 7.95868 10.3173 7.77831 9.90496 8.40568Z" fill="#FA00E1"/>
<path fill-rule="evenodd" clip-rule="evenodd" d="M87.8698 38.2867C87.2272 37.7559 84.0561 38.7477 81.8768 38.8735C80.3976 38.9589 78.9013 39.0411 75.5067 38.161C71.7086 37.1763 69.9188 35.842 69.9188 35.842C69.9188 35.842 70.0306 35.5906 70.282 35.2553C70.5902 34.8444 72.4891 31.5952 72.7686 30.8967C73.048 30.1983 73.6767 28.8851 72.112 27.8514C70.5474 26.8177 69.1086 26.3986 66.7058 27.3206C64.303 28.2426 62.8502 30.8968 62.6266 31.8188C62.4031 32.7408 62.459 34.529 62.8502 35.1436C63.2413 35.7583 63.437 35.9259 63.409 36.0935C63.381 36.2612 62.7104 36.8199 62.2075 36.9037C61.7046 36.9875 61.3135 37.0155 61.2576 36.2332C61.2017 35.4509 61.4532 33.1039 61.3973 32.4893C61.3414 31.8747 59.7488 29.5557 57.6814 28.7455C55.6139 27.9352 53.9655 27.5999 53.0155 28.4381C52.0655 29.2763 51.6465 30.8129 51.1715 33.2157C50.6965 35.6185 50.1377 36.4568 49.5231 36.9317C48.9085 37.4066 48.7687 37.6581 48.4614 37.1273C48.154 36.5965 47.6791 34.948 47.4556 34.5289C47.232 34.1098 46.7012 33.8305 46.1983 33.7466C45.6954 33.6628 45.4998 33.6348 45.416 33.0481C45.3322 32.4614 44.9969 30.9247 43.5999 30.0307C42.2029 29.1366 39.884 28.8851 38.0679 29.9189C36.9165 30.5743 34.9946 31.8747 34.2402 34.5847C33.4529 37.4131 33.7843 40.2334 34.6593 41.849C35.749 43.8606 37.9282 44.4753 39.8839 44.14C41.7041 43.8278 42.9294 43.0783 43.8793 42.296C44.8292 41.5137 44.8851 41.0667 45.3321 41.2344C45.7791 41.402 46.1703 41.8489 46.9806 42.1284C47.7908 42.4078 48.8805 42.6313 50.2495 41.9607C51.6185 41.2902 53.4345 39.3624 54.133 36.4287C54.8315 33.4951 55.1947 32.2658 55.6417 32.182C56.0887 32.0982 56.9269 32.5453 57.1504 33.1878C57.374 33.8304 57.3461 34.6965 57.2902 35.6465C57.2343 36.5965 57.2221 38.3943 58.1842 39.6977C59.0503 40.8712 60.5033 41.877 63.1295 40.7314C65.7558 39.5859 66.3984 38.9992 66.622 38.9154C66.8455 38.8315 67.1249 38.8595 67.4601 39.0271C67.7954 39.1947 71.3437 40.8152 74.1935 41.374C77.0433 41.9328 78.3899 42.0206 80.6196 41.6814C82.5474 41.388 84.3355 40.8711 85.481 40.2564C86.6265 39.6418 88.5125 38.8175 87.8698 38.2867ZM43.4882 35.1715C43.4288 35.9241 43.2927 36.3449 43.2927 36.6802C43.2927 37.0155 43.125 37.0155 42.9295 37.2949C42.7339 37.5744 42.9015 37.7698 42.7338 38.0772C42.5662 38.3845 41.7248 40.3403 39.2414 40.3683C38.5718 40.3758 37.8724 39.9771 37.5929 39.4183C37.3135 38.8595 36.99 36.574 38.0679 34.501C39.1576 32.4056 40.3119 32.0703 40.8339 31.8747C41.4946 31.6271 42.0052 31.6887 42.5382 32.0144C43.5441 32.629 43.572 34.1098 43.4882 35.1715ZM69.3379 30.7388C69.0275 31.4042 67.7217 32.9186 67.4042 33.2996C67.1249 33.6348 67.0093 33.8659 66.5879 33.7994C66.1666 33.7328 66.3884 32.513 66.6101 31.9143C66.8319 31.3156 67.3252 30.5324 68.6337 29.6675C69.9422 28.8026 69.6484 30.0735 69.3379 30.7388Z" fill="#FA00E1"/>
</g>
</svg>
