<svg width="96" height="62" viewBox="0 0 96 62" fill="none" xmlns="http://www.w3.org/2000/svg">
<path fill-rule="evenodd" clip-rule="evenodd" d="M9.90496 8.40568C9.90496 8.40568 9.40205 8.85268 9.40205 9.52323C9.40205 10.1938 9.16459 12.848 8.87123 15.4883C8.715 16.8943 8.2286 26.231 8.28451 28.2985C8.34041 30.366 8.15551 33.7182 8.15878 37.0714C8.1623 40.7176 7.70516 50.5272 8.32642 51.8653C8.87123 53.0388 9.6815 53.1644 10.5756 53.1644C11.4697 53.1644 12.3659 52.8606 12.5872 52.3821C13.0202 51.4462 12.4754 49.6022 12.4754 48.4288C12.4754 47.2553 12.3637 32.8245 12.3637 30.785C12.3637 28.7455 12.4196 23.4929 12.4196 22.5988C12.4196 21.7047 12.3841 20.2539 12.5173 19.7211C12.643 19.2182 13.278 21.2061 13.6069 22.0261C14.459 24.1495 16.1634 25.4486 17.3368 25.8956C18.5103 26.3426 19.7955 26.6221 21.2484 25.8956C22.7013 25.1692 23.3717 24.5826 23.3717 24.5826C23.3717 24.5826 23.7489 23.9539 23.707 25.2251C23.67 26.3477 23.9079 35.2015 24.154 37.9095C24.4893 41.5976 25.0062 46.7105 26.3892 49.0993C27.2686 50.6183 28.6481 50.5903 29.3228 50.4404C30.0772 50.2728 30.7798 49.81 30.9992 49.225C31.2506 48.5545 31.1808 47.8281 30.9573 47.381C30.7337 46.934 30.3962 46.6342 30.0214 46.012C29.2809 44.7827 28.1913 39.7955 28.0655 36.0097C28.0117 34.3891 27.7303 22.8782 27.7862 21.2577C27.8421 19.6373 28.1774 14.4406 28.345 13.0995C28.5126 11.7584 28.8479 11.4231 28.9038 10.6409C28.9597 9.85859 28.2333 8.90859 27.2834 8.68513C26.3334 8.46167 25.3835 8.40577 25.16 9.18804C24.9365 9.97031 24.5454 10.585 24.5454 11.1997C24.5454 11.8143 23.9307 14.7759 23.5395 16.4523C23.1484 18.1287 21.6396 21.4255 20.5221 21.9285C19.4046 22.4314 18.0076 22.4314 17.0017 20.1962C15.9959 17.961 15.2137 15.1671 15.2137 13.6584C15.2137 12.1497 15.5489 11.9261 15.2137 11.2556C14.8784 10.585 13.8726 9.85859 13.4814 9.74686C13.0902 9.63513 12.6991 8.85285 12.1403 8.40577C11.5815 7.95868 10.3173 7.77831 9.90496 8.40568Z" fill="#F6F5F7"/>
<path fill-rule="evenodd" clip-rule="evenodd" d="M87.8698 38.287C87.2272 37.7562 84.0561 38.748 81.8768 38.8737C80.3976 38.9591 78.9013 39.0413 75.5067 38.1612C71.7086 37.1765 69.9188 35.8423 69.9188 35.8423C69.9188 35.8423 70.0306 35.5908 70.282 35.2555C70.5902 34.8447 72.4891 31.5954 72.7686 30.897C73.048 30.1985 73.6767 28.8854 72.112 27.8516C70.5474 26.8179 69.1086 26.3988 66.7058 27.3208C64.303 28.2428 62.8502 30.8971 62.6266 31.8191C62.4031 32.7411 62.459 34.5292 62.8502 35.1439C63.2413 35.7585 63.437 35.9262 63.409 36.0938C63.381 36.2614 62.7104 36.8202 62.2075 36.904C61.7046 36.9878 61.3135 37.0157 61.2576 36.2334C61.2017 35.4512 61.4532 33.1042 61.3973 32.4895C61.3414 31.8749 59.7488 29.556 57.6814 28.7457C55.6139 27.9354 53.9655 27.6002 53.0155 28.4384C52.0655 29.2765 51.6465 30.8132 51.1715 33.216C50.6965 35.6188 50.1377 36.4571 49.5231 36.932C48.9085 37.4069 48.7687 37.6583 48.4614 37.1275C48.154 36.5967 47.6791 34.9482 47.4556 34.5292C47.232 34.1101 46.7012 33.8307 46.1983 33.7469C45.6954 33.6631 45.4998 33.6351 45.416 33.0483C45.3322 32.4616 44.9969 30.9249 43.5999 30.0309C42.2029 29.1368 39.884 28.8854 38.0679 29.9192C36.9165 30.5745 34.9946 31.8749 34.2402 34.585C33.4529 37.4133 33.7843 40.2336 34.6593 41.8492C35.749 43.8609 37.9282 44.4756 39.8839 44.1402C41.7041 43.8281 42.9294 43.0785 43.8793 42.2962C44.8292 41.514 44.8851 41.067 45.3321 41.2346C45.7791 41.4022 46.1703 41.8492 46.9806 42.1286C47.7908 42.408 48.8805 42.6315 50.2495 41.961C51.6185 41.2904 53.4345 39.3626 54.133 36.429C54.8315 33.4953 55.1947 32.2661 55.6417 32.1823C56.0887 32.0984 56.9269 32.5455 57.1504 33.1881C57.374 33.8306 57.3461 34.6967 57.2902 35.6467C57.2343 36.5967 57.2221 38.3945 58.1842 39.698C59.0503 40.8714 60.5033 41.8772 63.1295 40.7317C65.7558 39.5861 66.3984 38.9994 66.622 38.9156C66.8455 38.8318 67.1249 38.8597 67.4601 39.0273C67.7954 39.195 71.3437 40.8154 74.1935 41.3742C77.0433 41.9331 78.3899 42.0209 80.6196 41.6816C82.5474 41.3882 84.3355 40.8713 85.481 40.2567C86.6265 39.6421 88.5125 38.8178 87.8698 38.287ZM43.4882 35.1717C43.4288 35.9243 43.2927 36.3452 43.2927 36.6804C43.2927 37.0157 43.125 37.0157 42.9295 37.2952C42.7339 37.5746 42.9015 37.7701 42.7338 38.0774C42.5662 38.3848 41.7248 40.3406 39.2414 40.3685C38.5718 40.376 37.8724 39.9773 37.5929 39.4185C37.3135 38.8597 36.99 36.5742 38.0679 34.5012C39.1576 32.4058 40.3119 32.0705 40.8339 31.8749C41.4946 31.6273 42.0052 31.6889 42.5382 32.0146C43.5441 32.6293 43.572 34.1101 43.4882 35.1717ZM69.3379 30.7391C69.0275 31.4044 67.7217 32.9188 67.4042 33.2998C67.1249 33.6351 67.0093 33.8662 66.5879 33.7996C66.1666 33.7331 66.3884 32.5133 66.6101 31.9145C66.8319 31.3158 67.3252 30.5326 68.6337 29.6677C69.9422 28.8028 69.6484 30.0737 69.3379 30.7391Z" fill="#F6F5F7"/>
</svg>
