<svg width="80" height="46" viewBox="0 0 80 46" fill="none" xmlns="http://www.w3.org/2000/svg">
<g opacity="0.75">
<path fill-rule="evenodd" clip-rule="evenodd" d="M1.90496 0.405684C1.90496 0.405684 1.40205 0.852684 1.40205 1.52323C1.40205 2.19377 1.16459 4.84804 0.871232 7.4883C0.714995 8.89435 0.2286 18.231 0.284506 20.2985C0.340413 22.366 0.15551 25.7182 0.158779 29.0714C0.1623 32.7176 -0.294844 42.5272 0.326415 43.8653C0.871232 45.0388 1.6815 45.1644 2.57559 45.1644C3.46967 45.1644 4.36585 44.8606 4.58722 44.3821C5.02022 43.4462 4.4754 41.6022 4.4754 40.4288C4.4754 39.2553 4.36368 24.8245 4.36368 22.785C4.36368 20.7455 4.41958 15.4929 4.41958 14.5988C4.41958 13.7047 4.38413 12.2539 4.51731 11.7211C4.64304 11.2182 5.27796 13.2061 5.60695 14.0261C6.45904 16.1495 8.16339 17.4486 9.33685 17.8956C10.5103 18.3426 11.7955 18.6221 13.2484 17.8956C14.7013 17.1692 15.3717 16.5826 15.3717 16.5826C15.3717 16.5826 15.7489 15.9539 15.707 17.2251C15.67 18.3477 15.9079 27.2015 16.154 29.9095C16.4893 33.5976 17.0062 38.7105 18.3892 41.0993C19.2686 42.6183 20.6481 42.5903 21.3228 42.4404C22.0772 42.2728 22.7798 41.81 22.9992 41.225C23.2506 40.5545 23.1808 39.8281 22.9573 39.381C22.7337 38.934 22.3962 38.6342 22.0214 38.012C21.2809 36.7827 20.1913 31.7955 20.0655 28.0097C20.0117 26.3891 19.7303 14.8782 19.7862 13.2577C19.8421 11.6373 20.1774 6.44058 20.345 5.09949C20.5126 3.7584 20.8479 3.42313 20.9038 2.64086C20.9597 1.85859 20.2333 0.908592 19.2834 0.685133C18.3334 0.461674 17.3835 0.405768 17.16 1.18804C16.9365 1.97031 16.5454 2.58503 16.5454 3.19967C16.5454 3.81431 15.9307 6.77593 15.5395 8.45229C15.1484 10.1287 13.6396 13.4255 12.5221 13.9285C11.4046 14.4314 10.0076 14.4314 9.00174 12.1962C7.99593 9.96102 7.21365 7.16711 7.21365 5.65839C7.21365 4.14966 7.54893 3.92612 7.21365 3.25558C6.87838 2.58504 5.87257 1.85859 5.48139 1.74686C5.09021 1.63513 4.69911 0.852853 4.1403 0.405768C3.58149 -0.0413167 2.31734 -0.221694 1.90496 0.405684Z" fill="#00D1FF"/>
<path fill-rule="evenodd" clip-rule="evenodd" d="M79.8698 30.2867C79.2272 29.7559 76.0561 30.7477 73.8768 30.8735C72.3976 30.9589 70.9013 31.0411 67.5067 30.161C63.7086 29.1763 61.9188 27.842 61.9188 27.842C61.9188 27.842 62.0306 27.5906 62.282 27.2553C62.5902 26.8444 64.4891 23.5952 64.7686 22.8967C65.048 22.1983 65.6767 20.8851 64.112 19.8514C62.5474 18.8177 61.1086 18.3986 58.7058 19.3206C56.303 20.2426 54.8502 22.8968 54.6266 23.8188C54.4031 24.7408 54.459 26.529 54.8502 27.1436C55.2413 27.7583 55.437 27.9259 55.409 28.0935C55.381 28.2612 54.7104 28.8199 54.2075 28.9037C53.7046 28.9875 53.3135 29.0155 53.2576 28.2332C53.2017 27.4509 53.4532 25.1039 53.3973 24.4893C53.3414 23.8747 51.7488 21.5557 49.6814 20.7455C47.6139 19.9352 45.9655 19.5999 45.0155 20.4381C44.0655 21.2763 43.6465 22.8129 43.1715 25.2157C42.6965 27.6185 42.1377 28.4568 41.5231 28.9317C40.9085 29.4066 40.7687 29.6581 40.4614 29.1273C40.154 28.5965 39.6791 26.948 39.4556 26.5289C39.232 26.1098 38.7012 25.8305 38.1983 25.7466C37.6954 25.6628 37.4998 25.6348 37.416 25.0481C37.3322 24.4614 36.9969 22.9247 35.5999 22.0307C34.2029 21.1366 31.884 20.8851 30.0679 21.9189C28.9165 22.5743 26.9946 23.8747 26.2402 26.5847C25.4529 29.4131 25.7843 32.2334 26.6593 33.849C27.749 35.8606 29.9282 36.4753 31.8839 36.14C33.7041 35.8278 34.9294 35.0783 35.8793 34.296C36.8292 33.5137 36.8851 33.0667 37.3321 33.2344C37.7791 33.402 38.1703 33.8489 38.9806 34.1284C39.7908 34.4078 40.8805 34.6313 42.2495 33.9607C43.6185 33.2902 45.4345 31.3624 46.133 28.4287C46.8315 25.4951 47.1947 24.2658 47.6417 24.182C48.0887 24.0982 48.9269 24.5453 49.1504 25.1878C49.374 25.8304 49.3461 26.6965 49.2902 27.6465C49.2343 28.5965 49.2221 30.3943 50.1842 31.6977C51.0503 32.8712 52.5033 33.877 55.1295 32.7314C57.7558 31.5859 58.3984 30.9992 58.622 30.9154C58.8455 30.8315 59.1249 30.8595 59.4601 31.0271C59.7954 31.1947 63.3437 32.8152 66.1935 33.374C69.0433 33.9328 70.3899 34.0206 72.6196 33.6814C74.5474 33.388 76.3355 32.8711 77.481 32.2564C78.6265 31.6418 80.5125 30.8175 79.8698 30.2867ZM35.4882 27.1715C35.4288 27.9241 35.2927 28.3449 35.2927 28.6802C35.2927 29.0155 35.125 29.0155 34.9295 29.2949C34.7339 29.5744 34.9015 29.7698 34.7338 30.0772C34.5662 30.3845 33.7248 32.3403 31.2414 32.3683C30.5718 32.3758 29.8724 31.9771 29.5929 31.4183C29.3135 30.8595 28.99 28.574 30.0679 26.501C31.1576 24.4056 32.3119 24.0703 32.8339 23.8747C33.4946 23.6271 34.0052 23.6887 34.5382 24.0144C35.5441 24.629 35.572 26.1098 35.4882 27.1715ZM61.3379 22.7388C61.0275 23.4042 59.7217 24.9186 59.4042 25.2996C59.1249 25.6348 59.0093 25.8659 58.5879 25.7994C58.1666 25.7328 58.3884 24.513 58.6101 23.9143C58.8319 23.3156 59.3252 22.5324 60.6337 21.6675C61.9422 20.8026 61.6484 22.0735 61.3379 22.7388Z" fill="#00D1FF"/>
</g>
</svg>
