<svg width="1296" height="227" viewBox="0 0 1296 227" fill="none" xmlns="http://www.w3.org/2000/svg">
<path fill-rule="evenodd" clip-rule="evenodd" d="M1195.43 120.289C1224.65 110.226 1253.48 100.295 1296 99.1165V118.658C1262.23 115.274 1215.3 125.678 1180.54 133.383L1180.54 133.383C1175.21 134.564 1170.17 135.682 1165.5 136.678C1129.5 144.355 1068 151 1018 146.5C988.55 143.849 971.242 137.73 951.057 130.593C936.973 125.613 921.488 120.137 899.5 115C863.033 106.48 850.5 109.5 815 119.5C795.923 124.874 776.088 134.255 749.995 146.595C745.986 148.49 741.83 150.456 737.506 152.488C737.309 152.588 737.115 152.686 736.925 152.783C736.781 152.856 736.639 152.929 736.499 153C731.13 155.743 722.537 159.691 713.5 161C703.049 162.514 697.859 162.494 684.5 160C672.615 157.781 659.548 150.991 655.703 148.994L655.701 148.993L655.693 148.989L655.688 148.986C655.22 148.743 654.89 148.571 654.718 148.49C653.147 147.742 651.837 147.617 650.79 147.991C650.528 148.085 650.143 148.318 649.522 148.696C647.656 149.83 643.654 152.262 634.419 156.097C622.108 161.21 615.297 156.721 611.237 151.483C606.728 145.665 606.785 137.641 607.047 133.4C607.309 129.16 607.44 125.294 606.392 122.426C605.344 119.558 601.415 117.563 599.32 117.937C597.224 118.311 595.521 123.798 592.247 136.892C588.973 149.986 580.461 158.591 574.043 161.584C567.626 164.577 562.518 163.58 558.72 162.332C556.496 161.602 554.945 160.615 553.621 159.772L553.621 159.772C552.684 159.176 551.861 158.652 550.993 158.342C549.684 157.874 549.09 158.478 547.743 159.849C546.934 160.672 545.853 161.771 544.183 163.081C539.73 166.572 533.987 169.918 525.455 171.311C516.287 172.808 506.072 170.064 500.964 161.085C496.863 153.874 495.309 141.286 499 128.661C502.536 116.565 511.545 110.761 516.942 107.835C525.455 103.221 536.325 104.343 542.874 108.334C549.422 112.325 550.994 119.184 551.386 121.803C551.776 124.401 552.681 124.544 554.998 124.912L555.053 124.92C557.411 125.295 559.899 126.542 560.947 128.412C561.411 129.241 562.107 131.148 562.863 133.221L562.864 133.221L562.864 133.221L562.864 133.222L562.864 133.222C563.814 135.826 564.86 138.691 565.662 140.01C566.886 142.023 567.543 141.515 569.481 140.016C569.823 139.751 570.206 139.456 570.638 139.137C573.52 137.017 576.139 133.276 578.366 122.551C580.592 111.826 582.556 104.967 587.009 101.226C591.462 97.4846 599.189 98.9811 608.88 102.598C618.572 106.214 626.037 116.565 626.299 119.308C626.427 120.643 626.213 123.809 625.99 127.111V127.111V127.111V127.111C625.755 130.594 625.51 134.227 625.644 136.019C625.906 139.511 627.739 139.386 630.097 139.012C632.454 138.638 635.597 136.144 635.729 135.396C635.814 134.908 635.453 134.419 634.682 133.376C634.272 132.821 633.746 132.109 633.109 131.156C631.275 128.413 631.013 120.431 632.061 116.316C633.109 112.2 639.919 100.353 651.182 96.2377C662.446 92.1223 669.19 93.9929 676.524 98.607C683.524 103.011 681.159 108.551 679.79 111.757C679.746 111.861 679.702 111.963 679.66 112.061L679.602 112.2C678.292 115.318 669.391 129.82 667.946 131.654C666.767 133.151 666.243 134.273 666.243 134.273C666.243 134.273 678.025 145.01 693.5 150C705.006 152.841 711.756 152.659 717.361 151.556C726.154 149.307 737.7 144.352 751.446 138.453C785.023 124.043 831.726 104 883.5 104C905.466 104 925.604 110.74 949.028 118.579C981.589 129.477 1020.5 142.5 1079.5 142.5C1130.94 142.5 1163.42 131.315 1195.43 120.289ZM390.93 11.8108C390.93 11.8108 388.572 13.806 388.572 16.7989C388.572 19.7919 387.459 31.6392 386.084 43.4241C385.352 49.7 383.072 91.3742 383.334 100.602C383.471 105.445 383.298 111.866 383.104 119.039C382.929 125.535 382.737 132.647 382.744 139.761C382.749 144.091 382.6 150.37 382.435 157.366C381.978 176.661 381.393 201.41 383.53 205.793C386.084 211.031 389.882 211.592 394.073 211.592C398.264 211.592 402.465 210.235 403.503 208.1C404.828 205.372 404.199 200.915 403.603 196.693C403.286 194.449 402.978 192.271 402.978 190.454C402.978 188.195 402.881 174.926 402.77 159.835C402.624 139.94 402.455 116.878 402.455 111.701C402.455 106.224 402.55 95.5558 402.625 87.0563V87.056C402.675 81.4285 402.717 76.7517 402.717 75.162C402.717 74.5051 402.712 73.7808 402.708 73.0186C402.684 69.1503 402.653 64.3037 403.175 62.3173C403.627 60.5939 405.487 65.4233 407.024 69.416C407.489 70.624 407.924 71.7554 408.283 72.6056C412.277 82.0836 420.266 87.8821 425.767 89.8773C431.267 91.8725 437.291 93.1198 444.102 89.8773C450.912 86.6348 454.055 84.0163 454.055 84.0163C454.055 84.0163 455.823 81.2104 455.627 86.8843C455.453 91.895 456.569 131.414 457.722 143.501C459.294 159.963 461.717 182.785 468.199 193.447C472.322 200.227 478.788 200.102 481.951 199.433C485.487 198.685 488.781 196.619 489.809 194.008C490.988 191.015 490.66 187.773 489.612 185.778C489.067 184.74 488.378 183.88 487.594 182.902L487.594 182.902C486.871 182.001 486.068 180.999 485.225 179.667C481.754 174.18 476.647 151.919 476.057 135.022C475.805 127.788 474.486 76.4089 474.748 69.176C475.01 61.9431 476.582 38.7476 477.367 32.7616C477.789 29.5457 478.438 27.6256 478.989 25.9958C479.464 24.5919 479.866 23.4033 479.987 21.7875C480.249 18.2958 476.844 14.0555 472.391 13.0581C467.938 12.0607 463.485 11.8111 462.438 15.3028C462.045 16.6111 461.542 17.8145 461.067 18.9521L461.067 18.9522C460.273 20.8507 459.557 22.5663 459.557 24.2818C459.557 27.0252 456.675 40.2444 454.842 47.7269C453.008 55.2093 445.936 69.925 440.697 72.1698C435.459 74.4145 428.911 74.4145 424.196 64.4378C419.481 54.4611 415.814 41.9905 415.814 35.2563C415.814 32.4712 416.083 30.6672 416.287 29.2976C416.576 27.3555 416.736 26.2865 415.814 24.5313C414.242 21.5383 409.528 18.2958 407.694 17.7971C406.68 17.5213 405.666 16.3303 404.519 14.9831C403.592 13.8941 402.579 12.7032 401.408 11.8111C398.788 9.81558 392.863 9.01047 390.93 11.8108ZM542.35 131.28C542.204 133.042 541.959 134.396 541.759 135.502C541.578 136.504 541.433 137.303 541.433 138.014C541.433 139.012 541.084 139.345 540.58 139.825L540.58 139.825L540.579 139.825C540.327 140.065 540.036 140.342 539.731 140.758C539.253 141.408 539.238 141.956 539.221 142.525C539.206 143.05 539.19 143.592 538.814 144.25C538.766 144.333 538.707 144.443 538.635 144.576L538.635 144.578L538.635 144.578C537.521 146.65 533.377 154.359 522.443 154.476C519.304 154.51 516.026 152.73 514.716 150.236C513.406 147.742 511.889 137.54 516.942 128.288C521.8 119.393 526.932 117.603 529.527 116.698C529.661 116.652 529.788 116.608 529.908 116.565C533.005 115.46 535.398 115.735 537.897 117.189C542.612 119.932 542.743 126.542 542.35 131.28ZM655.078 122.22L655.078 122.22L655.072 122.228C654.822 122.509 654.614 122.745 654.456 122.925C654.288 123.117 654.133 123.301 653.986 123.476C652.984 124.664 652.352 125.415 650.63 125.156C648.655 124.859 649.695 119.414 650.734 116.742C651.774 114.069 654.086 110.574 660.219 106.713C666.353 102.853 664.976 108.525 663.521 111.495C662.22 114.149 657.195 119.827 655.078 122.22ZM524.188 186.8V206H526.324V200.252L527.368 197.648L529.78 206H531.928L528.736 195.212L531.676 186.8H529.384L527.944 191.048L526.516 196.124H526.06L526.384 191.372L526.408 186.8H524.188ZM557.874 205.364C558.442 205.908 559.362 206.18 560.634 206.18C561.914 206.18 562.83 205.908 563.382 205.364C563.942 204.812 564.238 203.904 564.27 202.64C564.286 201.584 564.302 200.54 564.318 199.508C564.334 198.476 564.342 197.444 564.342 196.412C564.342 195.38 564.334 194.344 564.318 193.304C564.302 192.264 564.286 191.216 564.27 190.16C564.238 188.888 563.942 187.98 563.382 187.436C562.83 186.892 561.914 186.62 560.634 186.62C559.362 186.62 558.442 186.892 557.874 187.436C557.314 187.98 557.022 188.888 556.998 190.16C556.982 191.216 556.966 192.264 556.95 193.304C556.942 194.336 556.938 195.368 556.938 196.4C556.938 197.432 556.942 198.468 556.95 199.508C556.966 200.54 556.982 201.584 556.998 202.64C557.022 203.904 557.314 204.812 557.874 205.364ZM561.798 204.092C561.558 204.316 561.17 204.428 560.634 204.428C560.114 204.428 559.73 204.316 559.482 204.092C559.242 203.868 559.114 203.5 559.098 202.988C559.074 201.9 559.05 200.804 559.026 199.7C559.01 198.588 559.002 197.476 559.002 196.364C559.002 195.244 559.01 194.136 559.026 193.04C559.042 191.944 559.066 190.868 559.098 189.812C559.114 189.3 559.242 188.932 559.482 188.708C559.73 188.476 560.114 188.36 560.634 188.36C561.162 188.36 561.546 188.476 561.786 188.708C562.034 188.932 562.162 189.3 562.17 189.812C562.202 190.868 562.226 191.944 562.242 193.04C562.258 194.136 562.266 195.244 562.266 196.364C562.266 197.476 562.258 198.588 562.242 199.7C562.226 200.804 562.202 201.9 562.17 202.988C562.162 203.5 562.038 203.868 561.798 204.092ZM563.118 183.848H562.194C562.186 184.104 562.146 184.3 562.074 184.436C562.002 184.572 561.874 184.64 561.69 184.64C561.514 184.64 561.366 184.592 561.246 184.496C561.134 184.4 561.018 184.292 560.898 184.172C560.786 184.052 560.642 183.948 560.466 183.86C560.29 183.764 560.054 183.716 559.758 183.716C559.31 183.716 558.958 183.88 558.702 184.208C558.446 184.528 558.29 185.028 558.234 185.708H559.146C559.178 185.436 559.238 185.228 559.326 185.084C559.414 184.94 559.554 184.868 559.746 184.868C559.946 184.868 560.11 184.916 560.238 185.012C560.366 185.1 560.486 185.208 560.598 185.336C560.718 185.456 560.862 185.564 561.03 185.66C561.198 185.748 561.426 185.792 561.714 185.792C562.154 185.792 562.494 185.632 562.734 185.312C562.974 184.984 563.102 184.496 563.118 183.848ZM593.9 186.8H590.54V206H592.64V198.884H593.9L595.676 206H597.908L595.892 198.524C596.444 198.292 596.852 197.92 597.116 197.408C597.38 196.896 597.528 196.22 597.56 195.38C597.584 194.828 597.6 194.288 597.608 193.76C597.616 193.224 597.616 192.676 597.608 192.116C597.6 191.556 597.584 190.952 597.56 190.304C597.512 189.048 597.204 188.152 596.636 187.616C596.068 187.072 595.156 186.8 593.9 186.8ZM593.876 197.012H592.64V188.672H593.9C594.428 188.672 594.812 188.796 595.052 189.044C595.3 189.292 595.436 189.676 595.46 190.196C595.484 190.772 595.5 191.356 595.508 191.948C595.516 192.54 595.516 193.136 595.508 193.736C595.5 194.328 595.484 194.908 595.46 195.476C595.436 195.996 595.3 196.384 595.052 196.64C594.804 196.888 594.412 197.012 593.876 197.012ZM625.228 188.672V206H627.316V188.672H629.92V186.8H622.624V188.672H625.228ZM655.863 205.352C656.415 205.904 657.322 206.18 658.587 206.18C659.843 206.18 660.747 205.904 661.299 205.352C661.851 204.792 662.15 203.876 662.198 202.604C662.206 202.236 662.214 201.908 662.222 201.62C662.231 201.324 662.235 201.024 662.235 200.72C662.235 200.416 662.226 200.056 662.21 199.64C662.187 198.896 662.098 198.26 661.946 197.732C661.795 197.196 661.531 196.756 661.154 196.412C660.778 196.06 660.243 195.804 659.546 195.644L658.226 195.32C657.762 195.208 657.45 194.984 657.291 194.648C657.139 194.312 657.05 193.84 657.027 193.232C656.994 192.664 656.975 192.096 656.967 191.528C656.967 190.96 656.986 190.396 657.027 189.836C657.058 189.332 657.191 188.96 657.422 188.72C657.654 188.48 658.034 188.36 658.563 188.36C659.067 188.36 659.442 188.48 659.691 188.72C659.938 188.96 660.075 189.332 660.098 189.836C660.123 190.46 660.131 191.088 660.123 191.72C660.114 192.344 660.098 192.968 660.075 193.592H662.09C662.114 192.952 662.131 192.328 662.139 191.72C662.146 191.112 662.143 190.6 662.127 190.184C662.079 188.912 661.778 188 661.226 187.448C660.683 186.896 659.803 186.62 658.587 186.62C657.714 186.62 657.015 186.74 656.486 186.98C655.959 187.212 655.575 187.592 655.334 188.12C655.094 188.64 654.959 189.32 654.926 190.16C654.919 190.672 654.911 191.192 654.903 191.72C654.903 192.248 654.907 192.752 654.915 193.232C654.938 193.984 655.027 194.624 655.179 195.152C655.33 195.68 655.587 196.112 655.946 196.448C656.314 196.776 656.834 197.024 657.506 197.192L658.934 197.564C659.374 197.676 659.67 197.92 659.822 198.296C659.982 198.664 660.075 199.112 660.098 199.64C660.123 200.08 660.139 200.476 660.146 200.828C660.154 201.172 660.154 201.512 660.146 201.848C660.139 202.176 660.123 202.544 660.098 202.952C660.058 203.456 659.922 203.828 659.691 204.068C659.467 204.308 659.098 204.428 658.587 204.428C658.05 204.428 657.658 204.308 657.411 204.068C657.162 203.828 657.027 203.456 657.002 202.952C656.963 202.328 656.942 201.684 656.942 201.02C656.95 200.348 656.971 199.672 657.002 198.992H655.011C654.986 199.432 654.967 199.844 654.95 200.228C654.942 200.612 654.938 200.996 654.938 201.38C654.941 201.522 654.944 201.667 654.947 201.816C654.952 202.069 654.957 202.332 654.963 202.604C655.019 203.876 655.318 204.792 655.863 205.352ZM690.327 186.8H688.227V206H690.327V186.8ZM720.052 186.8H716.704V206H718.732L718.576 198.776L718.228 188.66H718.828L720.1 199.268L721.36 206H724.84V186.8H722.8L722.944 193.952L723.328 204.128H722.764L721.204 192.884L720.052 186.8ZM753.327 186.8H751.227V206H753.327V186.8Z" fill="#F6F5F7"/>
</svg>
