<svg width="80" height="46" viewBox="0 0 80 46" fill="none" xmlns="http://www.w3.org/2000/svg">
<path fill-rule="evenodd" clip-rule="evenodd" d="M1.90496 0.405684C1.90496 0.405684 1.40205 0.852684 1.40205 1.52323C1.40205 2.19377 1.16459 4.84804 0.871232 7.4883C0.714995 8.89435 0.2286 18.231 0.284506 20.2985C0.340413 22.366 0.15551 25.7182 0.158779 29.0714C0.1623 32.7176 -0.294844 42.5272 0.326415 43.8653C0.871232 45.0388 1.6815 45.1644 2.57559 45.1644C3.46967 45.1644 4.36585 44.8606 4.58722 44.3821C5.02022 43.4462 4.4754 41.6022 4.4754 40.4288C4.4754 39.2553 4.36368 24.8245 4.36368 22.785C4.36368 20.7455 4.41958 15.4929 4.41958 14.5988C4.41958 13.7047 4.38413 12.2539 4.51731 11.7211C4.64304 11.2182 5.27796 13.2061 5.60695 14.0261C6.45904 16.1495 8.16339 17.4486 9.33685 17.8956C10.5103 18.3426 11.7955 18.6221 13.2484 17.8956C14.7013 17.1692 15.3717 16.5826 15.3717 16.5826C15.3717 16.5826 15.7489 15.9539 15.707 17.2251C15.67 18.3477 15.9079 27.2015 16.154 29.9095C16.4893 33.5976 17.0062 38.7105 18.3892 41.0993C19.2686 42.6183 20.6481 42.5903 21.3228 42.4404C22.0772 42.2728 22.7798 41.81 22.9992 41.225C23.2506 40.5545 23.1808 39.8281 22.9573 39.381C22.7337 38.934 22.3962 38.6342 22.0214 38.012C21.2809 36.7827 20.1913 31.7955 20.0655 28.0097C20.0117 26.3891 19.7303 14.8782 19.7862 13.2577C19.8421 11.6373 20.1774 6.44058 20.345 5.09949C20.5126 3.7584 20.8479 3.42313 20.9038 2.64086C20.9597 1.85859 20.2333 0.908592 19.2834 0.685133C18.3334 0.461674 17.3835 0.405768 17.16 1.18804C16.9365 1.97031 16.5454 2.58503 16.5454 3.19967C16.5454 3.81431 15.9307 6.77593 15.5395 8.45229C15.1484 10.1287 13.6396 13.4255 12.5221 13.9285C11.4046 14.4314 10.0076 14.4314 9.00174 12.1962C7.99593 9.96102 7.21365 7.16711 7.21365 5.65839C7.21365 4.14966 7.54893 3.92612 7.21365 3.25558C6.87838 2.58504 5.87257 1.85859 5.48139 1.74686C5.09021 1.63513 4.69911 0.852853 4.1403 0.405768C3.58149 -0.0413167 2.31734 -0.221694 1.90496 0.405684Z" fill="#F6F5F7"/>
<path fill-rule="evenodd" clip-rule="evenodd" d="M79.8698 30.287C79.2272 29.7562 76.0561 30.748 73.8768 30.8737C72.3976 30.9591 70.9013 31.0413 67.5067 30.1612C63.7086 29.1765 61.9188 27.8423 61.9188 27.8423C61.9188 27.8423 62.0306 27.5908 62.282 27.2555C62.5902 26.8447 64.4891 23.5954 64.7686 22.897C65.048 22.1985 65.6767 20.8854 64.112 19.8516C62.5474 18.8179 61.1086 18.3988 58.7058 19.3208C56.303 20.2428 54.8502 22.8971 54.6266 23.8191C54.4031 24.7411 54.459 26.5292 54.8502 27.1439C55.2413 27.7585 55.437 27.9262 55.409 28.0938C55.381 28.2614 54.7104 28.8202 54.2075 28.904C53.7046 28.9878 53.3135 29.0157 53.2576 28.2334C53.2017 27.4512 53.4532 25.1042 53.3973 24.4895C53.3414 23.8749 51.7488 21.556 49.6814 20.7457C47.6139 19.9354 45.9655 19.6002 45.0155 20.4384C44.0655 21.2765 43.6465 22.8132 43.1715 25.216C42.6965 27.6188 42.1377 28.4571 41.5231 28.932C40.9085 29.4069 40.7687 29.6583 40.4614 29.1275C40.154 28.5967 39.6791 26.9482 39.4556 26.5292C39.232 26.1101 38.7012 25.8307 38.1983 25.7469C37.6954 25.6631 37.4998 25.6351 37.416 25.0483C37.3322 24.4616 36.9969 22.9249 35.5999 22.0309C34.2029 21.1368 31.884 20.8854 30.0679 21.9192C28.9165 22.5745 26.9946 23.8749 26.2402 26.585C25.4529 29.4133 25.7843 32.2336 26.6593 33.8492C27.749 35.8609 29.9282 36.4756 31.8839 36.1402C33.7041 35.8281 34.9294 35.0785 35.8793 34.2962C36.8292 33.514 36.8851 33.067 37.3321 33.2346C37.7791 33.4022 38.1703 33.8492 38.9806 34.1286C39.7908 34.408 40.8805 34.6315 42.2495 33.961C43.6185 33.2904 45.4345 31.3626 46.133 28.429C46.8315 25.4953 47.1947 24.2661 47.6417 24.1823C48.0887 24.0984 48.9269 24.5455 49.1504 25.1881C49.374 25.8306 49.3461 26.6967 49.2902 27.6467C49.2343 28.5967 49.2221 30.3945 50.1842 31.698C51.0503 32.8714 52.5033 33.8772 55.1295 32.7317C57.7558 31.5861 58.3984 30.9994 58.622 30.9156C58.8455 30.8318 59.1249 30.8597 59.4601 31.0273C59.7954 31.195 63.3437 32.8154 66.1935 33.3742C69.0433 33.9331 70.3899 34.0209 72.6196 33.6816C74.5474 33.3882 76.3355 32.8713 77.481 32.2567C78.6265 31.6421 80.5125 30.8178 79.8698 30.287ZM35.4882 27.1717C35.4288 27.9243 35.2927 28.3452 35.2927 28.6804C35.2927 29.0157 35.125 29.0157 34.9295 29.2952C34.7339 29.5746 34.9015 29.7701 34.7338 30.0774C34.5662 30.3848 33.7248 32.3406 31.2414 32.3685C30.5718 32.376 29.8724 31.9773 29.5929 31.4185C29.3135 30.8597 28.99 28.5742 30.0679 26.5012C31.1576 24.4058 32.3119 24.0705 32.8339 23.8749C33.4946 23.6273 34.0052 23.6889 34.5382 24.0146C35.5441 24.6293 35.572 26.1101 35.4882 27.1717ZM61.3379 22.7391C61.0275 23.4044 59.7217 24.9188 59.4042 25.2998C59.1249 25.6351 59.0093 25.8662 58.5879 25.7996C58.1666 25.7331 58.3884 24.5133 58.6101 23.9145C58.8319 23.3158 59.3252 22.5326 60.6337 21.6677C61.9422 20.8028 61.6484 22.0737 61.3379 22.7391Z" fill="#F6F5F7"/>
</svg>
