<svg width="914" height="202" viewBox="0 0 914 202" fill="none" xmlns="http://www.w3.org/2000/svg">
<path fill-rule="evenodd" clip-rule="evenodd" d="M813.432 110.289C842.649 100.226 871.484 90.2952 914 89.1165V108.658C880.231 105.274 833.296 115.678 798.542 123.382L798.541 123.383C793.21 124.564 788.166 125.682 783.5 126.678C747.5 134.355 686 141 636 136.5C606.55 133.849 589.242 127.73 569.057 120.593C554.973 115.613 539.488 110.137 517.5 105C481.033 96.4797 468.5 99.5 433 109.5C413.923 114.874 394.088 124.255 367.995 136.595C363.986 138.49 359.83 140.456 355.506 142.488C355.308 142.588 355.113 142.687 354.922 142.784C354.779 142.857 354.638 142.929 354.499 143C349.129 145.743 340.537 149.691 331.5 151C321.048 152.514 315.858 152.494 302.5 150C290.615 147.781 277.548 140.991 273.703 138.994L273.701 138.993L273.693 138.989L273.688 138.986C273.219 138.743 272.89 138.571 272.718 138.49C271.147 137.742 269.837 137.617 268.789 137.991C268.528 138.085 268.143 138.318 267.522 138.696C265.656 139.83 261.653 142.262 252.419 146.097C240.108 151.21 233.297 146.721 229.237 141.483C224.728 135.665 224.785 127.641 225.047 123.4C225.309 119.16 225.439 115.294 224.392 112.426C223.344 109.558 219.415 107.563 217.319 107.937C215.224 108.311 213.521 113.798 210.247 126.892C206.973 139.986 198.46 148.591 192.043 151.584C185.626 154.577 180.518 153.58 176.72 152.332C174.496 151.602 172.945 150.615 171.621 149.772L171.621 149.772C170.684 149.176 169.861 148.652 168.993 148.342C167.684 147.874 167.09 148.478 165.743 149.849C164.934 150.672 163.853 151.771 162.183 153.081C157.73 156.572 151.987 159.918 143.455 161.311C134.287 162.808 124.072 160.064 118.964 151.085C114.862 143.874 113.309 131.286 117 118.661C120.536 106.565 129.545 100.761 134.942 97.8354C143.455 93.221 154.325 94.3434 160.873 98.3341C167.422 102.325 168.993 109.184 169.386 111.803C169.776 114.401 170.681 114.544 172.997 114.912L173.053 114.92C175.411 115.295 177.899 116.542 178.947 118.412C179.411 119.241 180.107 121.148 180.863 123.221L180.863 123.221L180.864 123.221L180.864 123.222L180.864 123.222C181.814 125.826 182.859 128.691 183.662 130.01C184.886 132.023 185.543 131.515 187.481 130.016C187.823 129.751 188.206 129.456 188.638 129.137C191.519 127.017 194.139 123.276 196.365 112.551C198.592 101.826 200.556 94.967 205.009 91.2258C209.462 87.4846 217.189 88.9811 226.88 92.5977C236.571 96.2144 244.037 106.565 244.299 109.308C244.426 110.643 244.213 113.809 243.99 117.111V117.111V117.111V117.111V117.111C243.755 120.594 243.509 124.227 243.644 126.019C243.906 129.511 245.739 129.386 248.097 129.012C250.454 128.638 253.597 126.144 253.729 125.396C253.814 124.908 253.453 124.419 252.682 123.376C252.272 122.821 251.746 122.109 251.109 121.156C249.275 118.413 249.013 110.431 250.061 106.316C251.109 102.2 257.919 90.353 269.182 86.2376C280.446 82.1223 287.19 83.9929 294.524 88.607C301.524 93.0108 299.159 98.5509 297.79 101.757L297.786 101.767C297.743 101.868 297.701 101.966 297.66 102.061L297.602 102.2C296.292 105.318 287.391 119.82 285.946 121.654C284.767 123.151 284.243 124.273 284.243 124.273C284.243 124.273 296.025 135.01 311.5 140C323.006 142.84 329.756 142.659 335.361 141.556C344.154 139.307 355.7 134.352 369.446 128.453C403.023 114.043 449.726 94 501.5 94C523.466 94 543.603 100.74 567.028 108.579C599.589 119.477 638.5 132.5 697.5 132.5C748.939 132.5 781.415 121.315 813.432 110.289ZM8.92942 1.81076C8.92942 1.81076 6.57204 3.80595 6.57204 6.79893C6.57204 9.79191 5.45896 21.6392 4.08382 33.4241C3.35146 39.7 1.07147 81.3742 1.33354 90.6023C1.47105 95.4449 1.29775 101.866 1.10417 109.039C0.928854 115.535 0.736909 122.647 0.744191 129.761C0.748582 134.091 0.600061 140.37 0.434575 147.366C-0.021811 166.661 -0.60722 191.41 1.52999 195.793C4.08382 201.031 7.88196 201.592 12.073 201.592C16.264 201.592 20.4649 200.235 21.5025 198.1C22.828 195.372 22.1988 190.915 21.6026 186.693C21.2859 184.449 20.9784 182.271 20.9784 180.454C20.9784 178.195 20.881 164.926 20.7701 149.835C20.624 129.94 20.4547 106.878 20.4547 101.701C20.4547 96.2239 20.5495 85.5557 20.6251 77.0563V77.056C20.6752 71.4285 20.7167 66.7517 20.7167 65.162C20.7167 64.5051 20.7122 63.7808 20.7075 63.0186C20.6834 59.1502 20.6533 54.3037 21.1749 52.3172C21.6273 50.5939 23.4865 55.4233 25.0237 59.416C25.4887 60.624 25.9243 61.7554 26.2825 62.6056C30.2767 72.0836 38.2659 77.8821 43.7665 79.8773C49.267 81.8725 55.2913 83.1198 62.1018 79.8773C68.9123 76.6348 72.0551 74.0163 72.0551 74.0163C72.0551 74.0163 73.8231 71.2104 73.6267 76.8843C73.4534 81.895 74.5684 121.414 75.722 133.501C77.2936 149.963 79.7166 172.785 86.1994 183.447C90.3217 190.227 96.788 190.102 99.9508 189.433C103.487 188.685 106.781 186.619 107.809 184.008C108.987 181.015 108.66 177.773 107.612 175.778C107.067 174.74 106.378 173.88 105.594 172.902L105.594 172.902C104.871 172.001 104.068 170.999 103.225 169.667C99.7543 164.18 94.6467 141.919 94.0573 125.022C93.8051 117.788 92.4857 66.4089 92.7478 59.176C93.0099 51.9431 94.5815 28.7476 95.3672 22.7616C95.7894 19.5457 96.4384 17.6256 96.9892 15.9957C97.4637 14.5918 97.8654 13.4033 97.9867 11.7875C98.2488 8.2958 94.8435 4.0555 90.3908 3.05809C85.9381 2.06068 81.485 1.81114 80.4375 5.30282C80.0451 6.61114 79.5422 7.81445 79.0668 8.9521L79.0667 8.95219C78.2734 10.8507 77.5564 12.5663 77.5564 14.2817C77.5564 17.0252 74.6753 30.2444 72.8417 37.7269C71.008 45.2093 63.9359 59.925 58.6974 62.1697C53.4589 64.4145 46.9104 64.4145 42.1957 54.4378C37.4809 44.4611 33.814 31.9904 33.814 25.2562C33.814 22.4711 34.0828 20.6672 34.2869 19.2976C34.5763 17.3555 34.7356 16.2864 33.814 14.5313C32.2424 11.5383 27.5276 8.2958 25.694 7.79709C24.68 7.52131 23.6661 6.33026 22.5193 4.98309C21.5923 3.89413 20.5785 2.70317 19.4076 1.81114C16.7882 -0.184427 10.8625 -0.98954 8.92942 1.81076ZM160.35 121.28C160.204 123.042 159.959 124.396 159.759 125.502V125.502C159.577 126.504 159.433 127.303 159.433 128.014C159.433 129.012 159.084 129.345 158.58 129.825L158.579 129.825L158.579 129.825C158.327 130.065 158.036 130.342 157.731 130.758C157.253 131.408 157.238 131.956 157.221 132.525C157.206 133.049 157.19 133.592 156.814 134.25C156.766 134.333 156.707 134.443 156.635 134.576L156.635 134.578L156.635 134.578C155.52 136.65 151.377 144.359 140.443 144.476C137.304 144.51 134.026 142.73 132.716 140.236C131.406 137.742 129.889 127.54 134.942 118.288C139.8 109.393 144.932 107.603 147.527 106.698C147.661 106.652 147.788 106.608 147.908 106.565C151.005 105.46 153.398 105.735 155.897 107.188C160.612 109.932 160.743 116.542 160.35 121.28ZM273.078 112.22L273.078 112.22L273.072 112.228C272.822 112.509 272.613 112.745 272.456 112.925C272.288 113.117 272.133 113.301 271.986 113.476C270.984 114.664 270.352 115.415 268.63 115.156C266.655 114.859 267.694 109.414 268.734 106.742C269.774 104.069 272.086 100.574 278.219 96.7131C284.353 92.8525 282.976 98.5253 281.521 101.495C280.22 104.149 275.195 109.827 273.078 112.22ZM142.188 176.8V196H144.324V190.252L145.368 187.648L147.78 196H149.928L146.736 185.212L149.676 176.8H147.384L145.944 181.048L144.516 186.124H144.06L144.384 181.372L144.408 176.8H142.188ZM175.874 195.364C176.442 195.908 177.362 196.18 178.634 196.18C179.914 196.18 180.83 195.908 181.382 195.364C181.942 194.812 182.238 193.904 182.27 192.64C182.286 191.584 182.302 190.54 182.318 189.508C182.334 188.476 182.342 187.444 182.342 186.412C182.342 185.38 182.334 184.344 182.318 183.304C182.302 182.264 182.286 181.216 182.27 180.16C182.238 178.888 181.942 177.98 181.382 177.436C180.83 176.892 179.914 176.62 178.634 176.62C177.362 176.62 176.442 176.892 175.874 177.436C175.314 177.98 175.022 178.888 174.998 180.16C174.982 181.216 174.966 182.264 174.95 183.304C174.942 184.336 174.938 185.368 174.938 186.4C174.938 187.432 174.942 188.468 174.95 189.508C174.966 190.54 174.982 191.584 174.998 192.64C175.022 193.904 175.314 194.812 175.874 195.364ZM179.798 194.092C179.558 194.316 179.17 194.428 178.634 194.428C178.114 194.428 177.73 194.316 177.482 194.092C177.242 193.868 177.114 193.5 177.098 192.988C177.074 191.9 177.05 190.804 177.026 189.7C177.01 188.588 177.002 187.476 177.002 186.364C177.002 185.244 177.01 184.136 177.026 183.04C177.042 181.944 177.066 180.868 177.098 179.812C177.114 179.3 177.242 178.932 177.482 178.708C177.73 178.476 178.114 178.36 178.634 178.36C179.162 178.36 179.546 178.476 179.786 178.708C180.034 178.932 180.162 179.3 180.17 179.812C180.202 180.868 180.226 181.944 180.242 183.04C180.258 184.136 180.266 185.244 180.266 186.364C180.266 187.476 180.258 188.588 180.242 189.7C180.226 190.804 180.202 191.9 180.17 192.988C180.162 193.5 180.038 193.868 179.798 194.092ZM181.118 173.848H180.194C180.186 174.104 180.146 174.3 180.074 174.436C180.002 174.572 179.874 174.64 179.69 174.64C179.514 174.64 179.366 174.592 179.246 174.496C179.134 174.4 179.018 174.292 178.898 174.172C178.786 174.052 178.642 173.948 178.466 173.86C178.29 173.764 178.054 173.716 177.758 173.716C177.31 173.716 176.958 173.88 176.702 174.208C176.446 174.528 176.29 175.028 176.234 175.708H177.146C177.178 175.436 177.238 175.228 177.326 175.084C177.414 174.94 177.554 174.868 177.746 174.868C177.946 174.868 178.11 174.916 178.238 175.012C178.366 175.1 178.486 175.208 178.598 175.336C178.718 175.456 178.862 175.564 179.03 175.66C179.198 175.748 179.426 175.792 179.714 175.792C180.154 175.792 180.494 175.632 180.734 175.312C180.974 174.984 181.102 174.496 181.118 173.848ZM211.9 176.8H208.54V196H210.64V188.884H211.9L213.676 196H215.908L213.892 188.524C214.444 188.292 214.852 187.92 215.116 187.408C215.38 186.896 215.528 186.22 215.56 185.38C215.584 184.828 215.6 184.288 215.608 183.76C215.616 183.224 215.616 182.676 215.608 182.116C215.6 181.556 215.584 180.952 215.56 180.304C215.512 179.048 215.204 178.152 214.636 177.616C214.068 177.072 213.156 176.8 211.9 176.8ZM211.876 187.012H210.64V178.672H211.9C212.428 178.672 212.812 178.796 213.052 179.044C213.3 179.292 213.436 179.676 213.46 180.196C213.484 180.772 213.5 181.356 213.508 181.948C213.516 182.54 213.516 183.136 213.508 183.736C213.5 184.328 213.484 184.908 213.46 185.476C213.436 185.996 213.3 186.384 213.052 186.64C212.804 186.888 212.412 187.012 211.876 187.012ZM243.228 178.672V196H245.316V178.672H247.92V176.8H240.624V178.672H243.228ZM273.862 195.352C274.414 195.904 275.322 196.18 276.586 196.18C277.842 196.18 278.746 195.904 279.298 195.352C279.85 194.792 280.15 193.876 280.198 192.604C280.206 192.236 280.214 191.908 280.222 191.62C280.23 191.324 280.234 191.024 280.234 190.72C280.234 190.416 280.226 190.056 280.21 189.64C280.186 188.896 280.098 188.26 279.946 187.732C279.794 187.196 279.53 186.756 279.154 186.412C278.778 186.06 278.242 185.804 277.546 185.644L276.226 185.32C275.762 185.208 275.45 184.984 275.29 184.648C275.138 184.312 275.05 183.84 275.026 183.232C274.994 182.664 274.974 182.096 274.966 181.528C274.966 180.96 274.986 180.396 275.026 179.836C275.058 179.332 275.19 178.96 275.422 178.72C275.654 178.48 276.034 178.36 276.562 178.36C277.066 178.36 277.442 178.48 277.69 178.72C277.938 178.96 278.074 179.332 278.098 179.836C278.122 180.46 278.13 181.088 278.122 181.72C278.114 182.344 278.098 182.968 278.074 183.592H280.09C280.114 182.952 280.13 182.328 280.138 181.72C280.146 181.112 280.142 180.6 280.126 180.184C280.078 178.912 279.778 178 279.226 177.448C278.682 176.896 277.802 176.62 276.586 176.62C275.714 176.62 275.014 176.74 274.486 176.98C273.958 177.212 273.574 177.592 273.334 178.12C273.094 178.64 272.958 179.32 272.926 180.16C272.918 180.672 272.91 181.192 272.902 181.72C272.902 182.248 272.906 182.752 272.914 183.232C272.938 183.984 273.026 184.624 273.178 185.152C273.33 185.68 273.586 186.112 273.946 186.448C274.314 186.776 274.834 187.024 275.506 187.192L276.934 187.564C277.374 187.676 277.67 187.92 277.822 188.296C277.982 188.664 278.074 189.112 278.098 189.64C278.122 190.08 278.138 190.476 278.146 190.828C278.154 191.172 278.154 191.512 278.146 191.848C278.138 192.176 278.122 192.544 278.098 192.952C278.058 193.456 277.922 193.828 277.69 194.068C277.466 194.308 277.098 194.428 276.586 194.428C276.05 194.428 275.658 194.308 275.41 194.068C275.162 193.828 275.026 193.456 275.002 192.952C274.962 192.328 274.942 191.684 274.942 191.02C274.95 190.348 274.97 189.672 275.002 188.992H273.01C272.986 189.432 272.966 189.844 272.95 190.228C272.942 190.612 272.938 190.996 272.938 191.38C272.941 191.522 272.944 191.667 272.947 191.816C272.952 192.069 272.957 192.332 272.962 192.604C273.018 193.876 273.318 194.792 273.862 195.352ZM308.327 176.8H306.227V196H308.327V176.8ZM338.052 176.8H334.704V196H336.732L336.576 188.776L336.228 178.66H336.828L338.1 189.268L339.36 196H342.84V176.8H340.8L340.944 183.952L341.328 194.128H340.764L339.204 182.884L338.052 176.8ZM371.327 176.8H369.227V196H371.327V176.8Z" fill="#F6F5F7"/>
</svg>
