<svg width="723" height="227" viewBox="0 0 723 227" fill="none" xmlns="http://www.w3.org/2000/svg">
<path fill-rule="evenodd" clip-rule="evenodd" d="M723 110.295C709.735 106.531 696.961 104 683.5 104C631.726 104 585.023 124.043 551.446 138.453C537.7 144.352 526.154 149.307 517.361 151.556C511.756 152.659 505.006 152.84 493.5 150C478.025 145.01 466.243 134.273 466.243 134.273C466.243 134.273 466.767 133.151 467.946 131.654C469.391 129.82 478.292 115.318 479.602 112.2L479.66 112.061C479.701 111.966 479.743 111.868 479.786 111.767L479.79 111.757C481.159 108.551 483.524 103.011 476.524 98.607C469.19 93.9929 462.446 92.1223 451.182 96.2377C439.919 100.353 433.109 112.2 432.061 116.316C431.013 120.431 431.275 128.413 433.109 131.156C433.746 132.109 434.272 132.821 434.682 133.376C435.453 134.419 435.814 134.908 435.729 135.396C435.597 136.144 432.454 138.638 430.097 139.012C427.739 139.386 425.906 139.511 425.644 136.019C425.51 134.227 425.755 130.594 425.99 127.112L425.99 127.111V127.111V127.111V127.111C426.213 123.809 426.427 120.643 426.299 119.308C426.037 116.565 418.572 106.214 408.88 102.598C399.189 98.9811 391.462 97.4846 387.009 101.226C382.556 104.967 380.592 111.826 378.366 122.551C376.139 133.276 373.52 137.017 370.638 139.137C370.206 139.456 369.823 139.751 369.481 140.016C367.543 141.515 366.886 142.023 365.662 140.01C364.86 138.691 363.814 135.826 362.864 133.222L362.864 133.222L362.864 133.221L362.864 133.221L362.863 133.221L362.863 133.22C362.107 131.148 361.411 129.241 360.947 128.412C359.899 126.542 357.411 125.295 355.053 124.92L354.998 124.912C352.681 124.544 351.776 124.401 351.386 121.803C350.994 119.184 349.422 112.325 342.874 108.334C336.325 104.343 325.455 103.221 316.942 107.835C311.545 110.761 302.536 116.565 299 128.661C295.309 141.286 296.863 153.874 300.964 161.085C306.072 170.064 316.287 172.808 325.455 171.311C333.987 169.918 339.73 166.572 344.183 163.081C345.853 161.771 346.934 160.672 347.743 159.849C349.09 158.478 349.684 157.874 350.993 158.342C351.861 158.652 352.684 159.176 353.621 159.772L353.621 159.772C354.945 160.615 356.496 161.602 358.72 162.332C362.518 163.58 367.626 164.577 374.043 161.584C380.461 158.591 388.973 149.986 392.247 136.892C395.521 123.798 397.224 118.311 399.32 117.937C401.415 117.563 405.344 119.558 406.392 122.426C407.44 125.294 407.309 129.16 407.047 133.4C406.785 137.641 406.728 145.665 411.237 151.483C415.297 156.721 422.108 161.21 434.419 156.097C443.654 152.262 447.656 149.83 449.522 148.696C450.143 148.318 450.528 148.085 450.79 147.991C451.837 147.617 453.147 147.742 454.718 148.49C454.89 148.571 455.22 148.743 455.688 148.986L455.693 148.989L455.701 148.993L455.703 148.994C459.548 150.991 472.615 157.781 484.5 160C497.859 162.494 503.049 162.514 513.5 161C522.537 159.691 531.13 155.743 536.499 153C536.639 152.929 536.781 152.856 536.925 152.783C537.115 152.686 537.309 152.588 537.506 152.488C541.83 150.456 545.986 148.49 549.995 146.595C576.088 134.255 595.923 124.874 615 119.5C650.5 109.5 663.033 106.48 699.5 115C708.257 117.046 715.983 119.146 723 121.247V110.295ZM188.572 16.7989C188.572 13.806 190.93 11.8108 190.93 11.8108C192.863 9.01047 198.788 9.81558 201.408 11.8111C202.579 12.7032 203.592 13.8941 204.519 14.9831C205.666 16.3303 206.68 17.5213 207.694 17.7971C209.528 18.2958 214.242 21.5383 215.814 24.5313C216.736 26.2865 216.576 27.3555 216.287 29.2976C216.083 30.6672 215.814 32.4712 215.814 35.2563C215.814 41.9905 219.481 54.4611 224.196 64.4378C228.911 74.4145 235.459 74.4145 240.697 72.1698C245.936 69.925 253.008 55.2093 254.842 47.7269C256.675 40.2444 259.557 27.0252 259.557 24.2818C259.557 22.5663 260.273 20.8507 261.067 18.9522L261.067 18.9521C261.542 17.8145 262.045 16.6111 262.438 15.3028C263.485 11.8111 267.938 12.0607 272.391 13.0581C276.844 14.0555 280.249 18.2958 279.987 21.7875C279.866 23.4033 279.464 24.5919 278.989 25.9958C278.438 27.6256 277.789 29.5457 277.367 32.7616C276.582 38.7476 275.01 61.9431 274.748 69.176C274.486 76.4089 275.805 127.788 276.057 135.022C276.647 151.919 281.754 174.18 285.225 179.667C286.068 180.999 286.871 182.001 287.594 182.902L287.594 182.902C288.378 183.88 289.067 184.74 289.612 185.778C290.66 187.773 290.988 191.015 289.809 194.008C288.781 196.619 285.487 198.685 281.951 199.433C278.788 200.102 272.322 200.227 268.199 193.447C261.717 182.785 259.294 159.963 257.722 143.501C256.569 131.414 255.453 91.895 255.627 86.8843C255.823 81.2104 254.055 84.0163 254.055 84.0163C254.055 84.0163 250.912 86.6348 244.102 89.8773C237.291 93.1198 231.267 91.8725 225.767 89.8773C220.266 87.8821 212.277 82.0836 208.283 72.6056C207.924 71.7554 207.489 70.624 207.024 69.416C205.487 65.4233 203.627 60.5939 203.175 62.3173C202.653 64.3038 202.684 69.1503 202.708 73.0186C202.712 73.7808 202.717 74.5051 202.717 75.162C202.717 76.7517 202.675 81.4285 202.625 87.056V87.0563C202.55 95.5558 202.455 106.224 202.455 111.701C202.455 116.878 202.624 139.94 202.77 159.835C202.881 174.926 202.978 188.195 202.978 190.454C202.978 192.271 203.286 194.449 203.603 196.693C204.199 200.915 204.828 205.372 203.503 208.1C202.465 210.235 198.264 211.592 194.073 211.592C189.882 211.592 186.084 211.031 183.53 205.793C181.393 201.41 181.978 176.661 182.435 157.366C182.6 150.37 182.749 144.091 182.744 139.761C182.737 132.647 182.929 125.535 183.104 119.039C183.298 111.866 183.471 105.445 183.334 100.602C183.072 91.3742 185.352 49.7 186.084 43.4241C187.459 31.6392 188.572 19.7919 188.572 16.7989ZM341.759 135.502C341.959 134.396 342.204 133.042 342.35 131.28C342.743 126.542 342.612 119.932 337.897 117.189C335.398 115.735 333.005 115.46 329.908 116.565C329.788 116.608 329.661 116.652 329.527 116.698C326.932 117.603 321.8 119.393 316.942 128.288C311.889 137.54 313.406 147.742 314.716 150.236C316.026 152.73 319.304 154.51 322.443 154.476C333.377 154.359 337.521 146.65 338.635 144.578L338.635 144.578L338.635 144.576C338.707 144.443 338.766 144.333 338.814 144.25C339.19 143.592 339.206 143.049 339.221 142.525C339.238 141.956 339.253 141.408 339.731 140.758C340.036 140.342 340.327 140.065 340.579 139.825L340.58 139.825L340.58 139.825C341.084 139.345 341.433 139.012 341.433 138.014C341.433 137.303 341.578 136.504 341.759 135.502ZM455.078 122.22L455.078 122.22C457.195 119.827 462.22 114.149 463.521 111.495C464.976 108.525 466.353 102.853 460.219 106.713C454.086 110.574 451.774 114.069 450.734 116.742C449.695 119.414 448.655 124.859 450.63 125.156C452.352 125.415 452.984 124.664 453.986 123.476C454.133 123.301 454.288 123.117 454.456 122.925C454.614 122.745 454.822 122.509 455.072 122.228L455.078 122.22ZM324.188 206V186.8H326.408L326.384 191.372L326.06 196.124H326.516L327.944 191.048L329.384 186.8H331.676L328.736 195.212L331.928 206H329.78L327.368 197.648L326.324 200.252V206H324.188ZM360.634 206.18C359.362 206.18 358.442 205.908 357.874 205.364C357.314 204.812 357.022 203.904 356.998 202.64C356.982 201.584 356.966 200.54 356.95 199.508C356.942 198.468 356.938 197.432 356.938 196.4C356.938 195.368 356.942 194.336 356.95 193.304C356.966 192.264 356.982 191.216 356.998 190.16C357.022 188.888 357.314 187.98 357.874 187.436C358.442 186.892 359.362 186.62 360.634 186.62C361.914 186.62 362.83 186.892 363.382 187.436C363.942 187.98 364.238 188.888 364.27 190.16C364.286 191.216 364.302 192.264 364.318 193.304C364.334 194.344 364.342 195.38 364.342 196.412C364.342 197.444 364.334 198.476 364.318 199.508C364.311 199.96 364.304 200.415 364.297 200.872C364.288 201.458 364.279 202.047 364.27 202.64C364.238 203.904 363.942 204.812 363.382 205.364C362.83 205.908 361.914 206.18 360.634 206.18ZM360.634 204.428C361.17 204.428 361.558 204.316 361.798 204.092C362.038 203.868 362.162 203.5 362.17 202.988C362.202 201.9 362.226 200.804 362.242 199.7C362.258 198.588 362.266 197.476 362.266 196.364C362.266 195.244 362.258 194.136 362.242 193.04C362.226 191.944 362.202 190.868 362.17 189.812C362.162 189.3 362.034 188.932 361.786 188.708C361.546 188.476 361.162 188.36 360.634 188.36C360.114 188.36 359.73 188.476 359.482 188.708C359.242 188.932 359.114 189.3 359.098 189.812C359.066 190.868 359.042 191.944 359.026 193.04C359.01 194.136 359.002 195.244 359.002 196.364C359.002 197.476 359.01 198.588 359.026 199.7C359.05 200.804 359.074 201.9 359.098 202.988C359.114 203.5 359.242 203.868 359.482 204.092C359.73 204.316 360.114 204.428 360.634 204.428ZM362.194 183.848H363.118C363.102 184.496 362.974 184.984 362.734 185.312C362.494 185.632 362.154 185.792 361.714 185.792C361.426 185.792 361.198 185.748 361.03 185.66C360.862 185.564 360.718 185.456 360.598 185.336C360.486 185.208 360.366 185.1 360.238 185.012C360.11 184.916 359.946 184.868 359.746 184.868C359.554 184.868 359.414 184.94 359.326 185.084C359.238 185.228 359.178 185.436 359.146 185.708H358.234C358.29 185.028 358.446 184.528 358.702 184.208C358.958 183.88 359.31 183.716 359.758 183.716C360.054 183.716 360.29 183.764 360.466 183.86C360.642 183.948 360.786 184.052 360.898 184.172C361.018 184.292 361.134 184.4 361.246 184.496C361.366 184.592 361.514 184.64 361.69 184.64C361.874 184.64 362.002 184.572 362.074 184.436C362.146 184.3 362.186 184.104 362.194 183.848ZM390.54 186.8H393.9C395.156 186.8 396.068 187.072 396.636 187.616C397.204 188.152 397.512 189.048 397.56 190.304C397.584 190.952 397.6 191.556 397.608 192.116C397.616 192.676 397.616 193.224 397.608 193.76C397.6 194.288 397.584 194.828 397.56 195.38C397.528 196.22 397.38 196.896 397.116 197.408C396.852 197.92 396.444 198.292 395.892 198.524L397.908 206H395.676L393.9 198.884H392.64V206H390.54V186.8ZM392.64 197.012H393.876C394.412 197.012 394.804 196.888 395.052 196.64C395.3 196.384 395.436 195.996 395.46 195.476C395.484 194.908 395.5 194.328 395.508 193.736C395.516 193.136 395.516 192.54 395.508 191.948C395.5 191.356 395.484 190.772 395.46 190.196C395.436 189.676 395.3 189.292 395.052 189.044C394.812 188.796 394.428 188.672 393.9 188.672H392.64V197.012ZM425.228 206V188.672H422.624V186.8H429.92V188.672H427.316V206H425.228ZM458.587 206.18C457.322 206.18 456.415 205.904 455.863 205.352C455.318 204.792 455.019 203.876 454.963 202.604C454.957 202.332 454.952 202.069 454.947 201.816L454.938 201.38C454.938 200.996 454.942 200.612 454.95 200.228C454.967 199.844 454.986 199.432 455.011 198.992H457.002C456.971 199.672 456.95 200.348 456.942 201.02C456.942 201.684 456.963 202.328 457.002 202.952C457.027 203.456 457.162 203.828 457.411 204.068C457.658 204.308 458.05 204.428 458.587 204.428C459.098 204.428 459.467 204.308 459.691 204.068C459.922 203.828 460.058 203.456 460.098 202.952C460.123 202.544 460.139 202.176 460.146 201.848C460.154 201.512 460.154 201.172 460.146 200.828C460.139 200.476 460.123 200.08 460.098 199.64C460.075 199.112 459.982 198.664 459.822 198.296C459.67 197.92 459.374 197.676 458.934 197.564L457.506 197.192C456.834 197.024 456.314 196.776 455.946 196.448C455.587 196.112 455.33 195.68 455.179 195.152C455.027 194.624 454.938 193.984 454.915 193.232C454.907 192.752 454.903 192.248 454.903 191.72C454.911 191.192 454.919 190.672 454.926 190.16C454.959 189.32 455.094 188.64 455.334 188.12C455.575 187.592 455.959 187.212 456.486 186.98C457.015 186.74 457.714 186.62 458.587 186.62C459.803 186.62 460.683 186.896 461.226 187.448C461.778 188 462.079 188.912 462.127 190.184C462.143 190.6 462.146 191.112 462.139 191.72C462.131 192.328 462.114 192.952 462.09 193.592H460.075C460.098 192.968 460.114 192.344 460.123 191.72C460.131 191.088 460.123 190.46 460.098 189.836C460.075 189.332 459.938 188.96 459.691 188.72C459.442 188.48 459.067 188.36 458.563 188.36C458.034 188.36 457.654 188.48 457.422 188.72C457.191 188.96 457.058 189.332 457.027 189.836C456.986 190.396 456.967 190.96 456.967 191.528C456.975 192.096 456.994 192.664 457.027 193.232C457.05 193.84 457.139 194.312 457.291 194.648C457.45 194.984 457.762 195.208 458.226 195.32L459.546 195.644C460.243 195.804 460.778 196.06 461.154 196.412C461.531 196.756 461.795 197.196 461.946 197.732C462.098 198.26 462.187 198.896 462.21 199.64C462.226 200.056 462.235 200.416 462.235 200.72C462.235 201.024 462.231 201.324 462.222 201.62C462.214 201.908 462.206 202.236 462.198 202.604C462.15 203.876 461.851 204.792 461.299 205.352C460.747 205.904 459.843 206.18 458.587 206.18ZM488.227 186.8H490.327V206H488.227V186.8ZM516.704 186.8H520.052L521.204 192.884L522.764 204.128H523.328L522.944 193.952L522.8 186.8H524.84V206H521.36L520.1 199.268L518.828 188.66H518.228L518.576 198.776L518.732 206H516.704V186.8ZM551.227 186.8H553.327V206H551.227V186.8Z" fill="#F6F5F7"/>
</svg>
