<?xml version="1.0" encoding="utf-8"?>
<!-- Generator: Adobe Illustrator 16.0.0, SVG Export Plug-In . SVG Version: 6.00 Build 0)  -->
<!DOCTYPE svg PUBLIC "-//W3C//DTD SVG 1.1//EN" "http://www.w3.org/Graphics/SVG/1.1/DTD/svg11.dtd">
<svg version="1.1" id="Layer_1" xmlns="http://www.w3.org/2000/svg" xmlns:xlink="http://www.w3.org/1999/xlink" x="0px" y="0px"
	 width="96px" height="110px" viewBox="0 0 96 110" enable-background="new 0 0 96 110" xml:space="preserve">
<g opacity="0.75">
	<path fill="#FFFFFF" d="M9.905,40.406c0,0-0.503,0.447-0.503,1.118c0,0.67-0.237,3.325-0.531,5.965
		C8.715,48.895,8.229,58.23,8.285,60.299c0.056,2.067-0.129,5.42-0.126,8.772c0.003,3.646-0.454,13.456,0.168,14.794
		c0.544,1.174,1.355,1.299,2.249,1.299s1.79-0.304,2.012-0.782c0.433-0.936-0.112-2.78-0.112-3.953s-0.112-15.604-0.112-17.644
		s0.056-7.292,0.056-8.187c0-0.894-0.035-2.345,0.098-2.877c0.126-0.503,0.761,1.485,1.09,2.305c0.852,2.123,2.557,3.423,3.73,3.869
		c1.173,0.447,2.458,0.727,3.912,0c1.453-0.727,2.123-1.313,2.123-1.313s0.377-0.628,0.335,0.643
		c-0.037,1.123,0.201,9.977,0.447,12.686c0.335,3.688,0.853,8.801,2.235,11.189c0.879,1.519,2.259,1.49,2.934,1.341
		c0.754-0.167,1.457-0.63,1.676-1.216c0.251-0.67,0.182-1.396-0.042-1.844c-0.224-0.447-0.562-0.746-0.936-1.369
		c-0.741-1.229-1.83-6.217-1.956-10.002c-0.054-1.621-0.335-13.132-0.279-14.752c0.056-1.621,0.391-6.817,0.559-8.158
		c0.167-1.341,0.502-1.677,0.559-2.459c0.056-0.782-0.67-1.732-1.621-1.956c-0.95-0.223-1.9-0.279-2.123,0.503
		c-0.224,0.782-0.615,1.397-0.615,2.012s-0.615,3.576-1.006,5.252c-0.391,1.677-1.9,4.973-3.018,5.477
		c-1.117,0.503-2.514,0.503-3.521-1.732c-1.005-2.235-1.788-5.029-1.788-6.538c0-1.508,0.335-1.732,0-2.402
		c-0.335-0.671-1.341-1.397-1.732-1.509c-0.391-0.112-0.782-0.894-1.341-1.341C11.582,39.958,10.317,39.778,9.905,40.406z"/>
	<path fill="#FFFFFF" d="M87.869,70.287c-0.643-0.531-3.813,0.461-5.992,0.586c-1.479,0.086-2.976,0.168-6.37-0.712
		c-3.798-0.984-5.588-2.319-5.588-2.319s0.112-0.251,0.363-0.586c0.308-0.411,2.207-3.66,2.486-4.359
		c0.279-0.698,0.908-2.012-0.657-3.045c-1.564-1.033-3.003-1.453-5.406-0.531c-2.402,0.922-3.855,3.576-4.078,4.499
		c-0.224,0.922-0.168,2.71,0.223,3.325c0.392,0.613,0.588,0.781,0.56,0.949s-0.698,0.727-1.202,0.811
		c-0.502,0.084-0.894,0.111-0.949-0.671c-0.057-0.782,0.195-3.13,0.14-3.744s-1.648-2.933-3.716-3.743
		c-2.068-0.811-3.717-1.146-4.666-0.308c-0.95,0.838-1.369,2.375-1.844,4.777c-0.476,2.403-1.034,3.241-1.648,3.716
		c-0.615,0.475-0.755,0.727-1.062,0.195c-0.308-0.53-0.782-2.179-1.006-2.598s-0.754-0.699-1.257-0.782
		c-0.503-0.084-0.698-0.112-0.782-0.698c-0.084-0.588-0.419-2.124-1.816-3.018c-1.397-0.895-3.716-1.146-5.532-0.112
		c-1.151,0.655-3.073,1.956-3.828,4.666c-0.787,2.828-0.456,5.648,0.419,7.265c1.09,2.012,3.269,2.626,5.225,2.291
		c1.82-0.313,3.045-1.063,3.996-1.844c0.95-0.783,1.006-1.23,1.453-1.063c0.447,0.168,0.838,0.615,1.648,0.895
		c0.811,0.279,1.9,0.502,3.27-0.168s3.185-2.598,3.883-5.531c0.699-2.935,1.063-4.164,1.509-4.248
		c0.447-0.083,1.285,0.363,1.509,1.006s0.195,1.51,0.14,2.459c-0.056,0.95-0.067,2.748,0.894,4.052
		c0.867,1.173,2.32,2.179,4.945,1.033c2.627-1.146,3.27-1.731,3.493-1.815s0.503-0.057,0.838,0.111s3.884,1.788,6.733,2.347
		c2.85,0.56,4.197,0.647,6.426,0.308c1.928-0.293,3.717-0.811,4.861-1.425C86.627,71.643,88.513,70.818,87.869,70.287z
		 M43.488,67.172c-0.06,0.752-0.196,1.174-0.196,1.509s-0.167,0.335-0.363,0.614c-0.196,0.279-0.028,0.475-0.196,0.782
		s-1.009,2.264-3.493,2.292c-0.669,0.007-1.369-0.392-1.648-0.951c-0.279-0.559-0.603-2.844,0.475-4.917
		c1.09-2.095,2.244-2.431,2.766-2.626c0.661-0.248,1.171-0.186,1.704,0.14C43.544,64.629,43.572,66.11,43.488,67.172z
		 M69.338,62.739c-0.311,0.665-1.616,2.18-1.934,2.561c-0.279,0.335-0.395,0.566-0.816,0.5c-0.422-0.067-0.199-1.286,0.021-1.886
		c0.223-0.598,0.716-1.381,2.024-2.246S69.648,62.074,69.338,62.739z"/>
</g>
</svg>
