<svg width="1440" height="1016" viewBox="0 0 1440 1016" fill="none" xmlns="http://www.w3.org/2000/svg">
<path fill-rule="evenodd" clip-rule="evenodd" d="M1339.43 517.289C1368.65 507.226 1397.48 497.295 1440 496.117V515.658C1406.23 512.274 1359.3 522.678 1324.54 530.383L1324.54 530.383C1319.21 531.564 1314.17 532.682 1309.5 533.678C1273.5 541.355 1212 548 1162 543.5C1132.55 540.849 1115.24 534.73 1095.06 527.593C1080.97 522.613 1065.49 517.137 1043.5 512C1007.03 503.48 994.5 506.5 959 516.5C939.923 521.874 920.088 531.255 893.995 543.595C889.986 545.49 885.83 547.456 881.506 549.488C881.309 549.588 881.115 549.686 880.925 549.783C880.781 549.856 880.639 549.929 880.499 550C875.13 552.743 866.537 556.691 857.5 558C847.049 559.514 841.859 559.494 828.5 557C816.615 554.781 803.548 547.991 799.703 545.994L799.701 545.993L799.693 545.989L799.688 545.986C799.22 545.743 798.89 545.571 798.718 545.49C797.147 544.742 795.837 544.617 794.79 544.991C794.528 545.085 794.143 545.318 793.522 545.696C791.656 546.83 787.654 549.262 778.419 553.097C766.108 558.21 759.297 553.721 755.237 548.483C750.728 542.665 750.785 534.641 751.047 530.4C751.309 526.16 751.44 522.294 750.392 519.426C749.344 516.558 745.415 514.563 743.32 514.937C741.224 515.311 739.521 520.798 736.247 533.892C732.973 546.986 724.461 555.591 718.043 558.584C711.626 561.577 706.518 560.58 702.72 559.332C700.496 558.602 698.945 557.615 697.621 556.772L697.621 556.772C696.684 556.176 695.861 555.652 694.993 555.342C693.684 554.874 693.09 555.478 691.743 556.849C690.934 557.672 689.853 558.771 688.183 560.081C683.73 563.572 677.987 566.918 669.455 568.311C660.287 569.808 650.072 567.064 644.964 558.085C640.863 550.874 639.309 538.286 643 525.661C646.536 513.565 655.545 507.761 660.942 504.835C669.455 500.221 680.325 501.343 686.874 505.334C693.422 509.325 694.994 516.184 695.386 518.803C695.776 521.401 696.681 521.544 698.998 521.912L699.053 521.92C701.411 522.295 703.899 523.542 704.947 525.412C705.411 526.241 706.107 528.148 706.863 530.221L706.864 530.221L706.864 530.221L706.864 530.222L706.864 530.222C707.814 532.826 708.86 535.691 709.662 537.01C710.886 539.023 711.543 538.515 713.481 537.016C713.823 536.751 714.206 536.456 714.638 536.137C717.52 534.017 720.139 530.276 722.366 519.551C724.592 508.826 726.556 501.967 731.009 498.226C735.462 494.485 743.189 495.981 752.88 499.598C762.572 503.214 770.037 513.565 770.299 516.308C770.427 517.643 770.213 520.809 769.99 524.111V524.111V524.111V524.111C769.755 527.594 769.51 531.227 769.644 533.019C769.906 536.511 771.739 536.386 774.097 536.012C776.454 535.638 779.597 533.144 779.729 532.396C779.814 531.908 779.453 531.419 778.682 530.376C778.272 529.821 777.746 529.109 777.109 528.156C775.275 525.413 775.013 517.431 776.061 513.316C777.109 509.2 783.919 497.353 795.182 493.238C806.446 489.122 813.19 490.993 820.524 495.607C827.524 500.011 825.159 505.551 823.79 508.757C823.746 508.861 823.702 508.963 823.66 509.061L823.602 509.2C822.292 512.318 813.391 526.82 811.946 528.654C810.767 530.151 810.243 531.273 810.243 531.273C810.243 531.273 822.025 542.01 837.5 547C849.006 549.841 855.756 549.659 861.361 548.556C870.154 546.307 881.7 541.352 895.446 535.453C929.023 521.043 975.726 501 1027.5 501C1049.47 501 1069.6 507.74 1093.03 515.579C1125.59 526.477 1164.5 539.5 1223.5 539.5C1274.94 539.5 1307.42 528.315 1339.43 517.289ZM534.93 408.811C534.93 408.811 532.572 410.806 532.572 413.799C532.572 416.792 531.459 428.639 530.084 440.424C529.352 446.7 527.072 488.374 527.334 497.602C527.471 502.445 527.298 508.866 527.104 516.039C526.929 522.535 526.737 529.647 526.744 536.761C526.749 541.091 526.6 547.37 526.435 554.366C525.978 573.661 525.393 598.41 527.53 602.793C530.084 608.031 533.882 608.592 538.073 608.592C542.264 608.592 546.465 607.235 547.503 605.1C548.828 602.372 548.199 597.915 547.603 593.693C547.286 591.449 546.978 589.271 546.978 587.454C546.978 585.195 546.881 571.926 546.77 556.835C546.624 536.94 546.455 513.878 546.455 508.701C546.455 503.224 546.55 492.556 546.625 484.056V484.056C546.675 478.428 546.717 473.752 546.717 472.162C546.717 471.505 546.712 470.781 546.708 470.019C546.684 466.15 546.653 461.304 547.175 459.317C547.627 457.594 549.487 462.423 551.024 466.416C551.489 467.624 551.924 468.755 552.283 469.606C556.277 479.084 564.266 484.882 569.767 486.877C575.267 488.873 581.291 490.12 588.102 486.877C594.912 483.635 598.055 481.016 598.055 481.016C598.055 481.016 599.823 478.21 599.627 483.884C599.453 488.895 600.569 528.414 601.722 540.501C603.294 556.963 605.717 579.785 612.199 590.447C616.322 597.227 622.788 597.102 625.951 596.433C629.487 595.685 632.781 593.619 633.809 591.008C634.988 588.015 634.66 584.773 633.612 582.778C633.067 581.74 632.378 580.88 631.594 579.902L631.594 579.902C630.871 579.001 630.068 577.999 629.225 576.667C625.754 571.18 620.647 548.919 620.057 532.022C619.805 524.788 618.486 473.409 618.748 466.176C619.01 458.943 620.582 435.748 621.367 429.762C621.789 426.546 622.438 424.626 622.989 422.996C623.464 421.592 623.866 420.403 623.987 418.787C624.249 415.296 620.844 411.056 616.391 410.058C611.938 409.061 607.485 408.811 606.438 412.303C606.045 413.611 605.542 414.814 605.067 415.952L605.067 415.952C604.273 417.851 603.557 419.566 603.557 421.282C603.557 424.025 600.675 437.244 598.842 444.727C597.008 452.209 589.936 466.925 584.697 469.17C579.459 471.414 572.911 471.414 568.196 461.438C563.481 451.461 559.814 438.99 559.814 432.256C559.814 429.471 560.083 427.667 560.287 426.298C560.576 424.355 560.736 423.286 559.814 421.531C558.242 418.538 553.528 415.296 551.694 414.797C550.68 414.521 549.666 413.33 548.519 411.983C547.592 410.894 546.579 409.703 545.408 408.811C542.788 406.816 536.863 406.01 534.93 408.811ZM686.35 528.28C686.204 530.042 685.959 531.396 685.759 532.502C685.578 533.504 685.433 534.303 685.433 535.014C685.433 536.012 685.084 536.345 684.58 536.825L684.58 536.825L684.579 536.825C684.327 537.065 684.036 537.342 683.731 537.758C683.253 538.408 683.238 538.956 683.221 539.525C683.206 540.05 683.19 540.592 682.814 541.25C682.766 541.333 682.707 541.443 682.635 541.576L682.635 541.578L682.635 541.578C681.521 543.65 677.377 551.359 666.443 551.476C663.304 551.51 660.026 549.73 658.716 547.236C657.406 544.742 655.889 534.54 660.942 525.288C665.8 516.393 670.932 514.603 673.527 513.698C673.661 513.652 673.788 513.608 673.908 513.565C677.005 512.46 679.398 512.735 681.897 514.189C686.612 516.932 686.743 523.542 686.35 528.28ZM799.078 519.22L799.078 519.22L799.072 519.228C798.822 519.509 798.614 519.745 798.456 519.925C798.288 520.117 798.133 520.301 797.986 520.476C796.984 521.664 796.352 522.415 794.63 522.156C792.655 521.859 793.695 516.414 794.734 513.742C795.774 511.069 798.086 507.574 804.219 503.713C810.353 499.853 808.976 505.525 807.521 508.495C806.22 511.149 801.195 516.827 799.078 519.22ZM668.188 583.8V603H670.324V597.252L671.368 594.648L673.78 603H675.928L672.736 592.212L675.676 583.8H673.384L671.944 588.048L670.516 593.124H670.06L670.384 588.372L670.408 583.8H668.188ZM701.874 602.364C702.442 602.908 703.362 603.18 704.634 603.18C705.914 603.18 706.83 602.908 707.382 602.364C707.942 601.812 708.238 600.904 708.27 599.64C708.286 598.584 708.302 597.54 708.318 596.508C708.334 595.476 708.342 594.444 708.342 593.412C708.342 592.38 708.334 591.344 708.318 590.304C708.302 589.264 708.286 588.216 708.27 587.16C708.238 585.888 707.942 584.98 707.382 584.436C706.83 583.892 705.914 583.62 704.634 583.62C703.362 583.62 702.442 583.892 701.874 584.436C701.314 584.98 701.022 585.888 700.998 587.16C700.982 588.216 700.966 589.264 700.95 590.304C700.942 591.336 700.938 592.368 700.938 593.4C700.938 594.432 700.942 595.468 700.95 596.508C700.966 597.54 700.982 598.584 700.998 599.64C701.022 600.904 701.314 601.812 701.874 602.364ZM705.798 601.092C705.558 601.316 705.17 601.428 704.634 601.428C704.114 601.428 703.73 601.316 703.482 601.092C703.242 600.868 703.114 600.5 703.098 599.988C703.074 598.9 703.05 597.804 703.026 596.7C703.01 595.588 703.002 594.476 703.002 593.364C703.002 592.244 703.01 591.136 703.026 590.04C703.042 588.944 703.066 587.868 703.098 586.812C703.114 586.3 703.242 585.932 703.482 585.708C703.73 585.476 704.114 585.36 704.634 585.36C705.162 585.36 705.546 585.476 705.786 585.708C706.034 585.932 706.162 586.3 706.17 586.812C706.202 587.868 706.226 588.944 706.242 590.04C706.258 591.136 706.266 592.244 706.266 593.364C706.266 594.476 706.258 595.588 706.242 596.7C706.226 597.804 706.202 598.9 706.17 599.988C706.162 600.5 706.038 600.868 705.798 601.092ZM707.118 580.848H706.194C706.186 581.104 706.146 581.3 706.074 581.436C706.002 581.572 705.874 581.64 705.69 581.64C705.514 581.64 705.366 581.592 705.246 581.496C705.134 581.4 705.018 581.292 704.898 581.172C704.786 581.052 704.642 580.948 704.466 580.86C704.29 580.764 704.054 580.716 703.758 580.716C703.31 580.716 702.958 580.88 702.702 581.208C702.446 581.528 702.29 582.028 702.234 582.708H703.146C703.178 582.436 703.238 582.228 703.326 582.084C703.414 581.94 703.554 581.868 703.746 581.868C703.946 581.868 704.11 581.916 704.238 582.012C704.366 582.1 704.486 582.208 704.598 582.336C704.718 582.456 704.862 582.564 705.03 582.66C705.198 582.748 705.426 582.792 705.714 582.792C706.154 582.792 706.494 582.632 706.734 582.312C706.974 581.984 707.102 581.496 707.118 580.848ZM737.9 583.8H734.54V603H736.64V595.884H737.9L739.676 603H741.908L739.892 595.524C740.444 595.292 740.852 594.92 741.116 594.408C741.38 593.896 741.528 593.22 741.56 592.38C741.584 591.828 741.6 591.288 741.608 590.76C741.616 590.224 741.616 589.676 741.608 589.116C741.6 588.556 741.584 587.952 741.56 587.304C741.512 586.048 741.204 585.152 740.636 584.616C740.068 584.072 739.156 583.8 737.9 583.8ZM737.876 594.012H736.64V585.672H737.9C738.428 585.672 738.812 585.796 739.052 586.044C739.3 586.292 739.436 586.676 739.46 587.196C739.484 587.772 739.5 588.356 739.508 588.948C739.516 589.54 739.516 590.136 739.508 590.736C739.5 591.328 739.484 591.908 739.46 592.476C739.436 592.996 739.3 593.384 739.052 593.64C738.804 593.888 738.412 594.012 737.876 594.012ZM769.228 585.672V603H771.316V585.672H773.92V583.8H766.624V585.672H769.228ZM799.863 602.352C800.415 602.904 801.322 603.18 802.587 603.18C803.843 603.18 804.747 602.904 805.299 602.352C805.851 601.792 806.15 600.876 806.198 599.604C806.206 599.236 806.214 598.908 806.222 598.62C806.231 598.324 806.235 598.024 806.235 597.72C806.235 597.416 806.226 597.056 806.21 596.64C806.187 595.896 806.098 595.26 805.946 594.732C805.795 594.196 805.531 593.756 805.154 593.412C804.778 593.06 804.243 592.804 803.546 592.644L802.226 592.32C801.762 592.208 801.45 591.984 801.291 591.648C801.139 591.312 801.05 590.84 801.027 590.232C800.994 589.664 800.975 589.096 800.967 588.528C800.967 587.96 800.986 587.396 801.027 586.836C801.058 586.332 801.191 585.96 801.422 585.72C801.654 585.48 802.034 585.36 802.563 585.36C803.067 585.36 803.442 585.48 803.691 585.72C803.938 585.96 804.075 586.332 804.098 586.836C804.123 587.46 804.131 588.088 804.123 588.72C804.114 589.344 804.098 589.968 804.075 590.592H806.09C806.114 589.952 806.131 589.328 806.139 588.72C806.146 588.112 806.143 587.6 806.127 587.184C806.079 585.912 805.778 585 805.226 584.448C804.683 583.896 803.803 583.62 802.587 583.62C801.714 583.62 801.015 583.74 800.486 583.98C799.959 584.212 799.575 584.592 799.334 585.12C799.094 585.64 798.959 586.32 798.926 587.16C798.919 587.672 798.911 588.192 798.903 588.72C798.903 589.248 798.907 589.752 798.915 590.232C798.938 590.984 799.027 591.624 799.179 592.152C799.33 592.68 799.587 593.112 799.946 593.448C800.314 593.776 800.834 594.024 801.506 594.192L802.934 594.564C803.374 594.676 803.67 594.92 803.822 595.296C803.982 595.664 804.075 596.112 804.098 596.64C804.123 597.08 804.139 597.476 804.146 597.828C804.154 598.172 804.154 598.512 804.146 598.848C804.139 599.176 804.123 599.544 804.098 599.952C804.058 600.456 803.922 600.828 803.691 601.068C803.467 601.308 803.098 601.428 802.587 601.428C802.05 601.428 801.658 601.308 801.411 601.068C801.162 600.828 801.027 600.456 801.002 599.952C800.963 599.328 800.942 598.684 800.942 598.02C800.95 597.348 800.971 596.672 801.002 595.992H799.011C798.986 596.432 798.967 596.844 798.95 597.228C798.942 597.612 798.938 597.996 798.938 598.38C798.941 598.522 798.944 598.667 798.947 598.816C798.952 599.069 798.957 599.332 798.963 599.604C799.019 600.876 799.318 601.792 799.863 602.352ZM834.327 583.8H832.227V603H834.327V583.8ZM864.052 583.8H860.704V603H862.732L862.576 595.776L862.228 585.66H862.828L864.1 596.268L865.36 603H868.84V583.8H866.8L866.944 590.952L867.328 601.128H866.764L865.204 589.884L864.052 583.8ZM897.327 583.8H895.227V603H897.327V583.8Z" fill="#F6F5F7"/>
</svg>
