<svg width="96" height="110" viewBox="0 0 96 110" fill="none" xmlns="http://www.w3.org/2000/svg">
<g opacity="0.75">
<path fill-rule="evenodd" clip-rule="evenodd" d="M9.90496 40.4057C9.90496 40.4057 9.40205 40.8527 9.40205 41.5232C9.40205 42.1938 9.16459 44.848 8.87123 47.4883C8.715 48.8943 8.2286 58.231 8.28451 60.2985C8.34041 62.366 8.15551 65.7182 8.15878 69.0714C8.1623 72.7176 7.70516 82.5272 8.32642 83.8653C8.87123 85.0388 9.6815 85.1644 10.5756 85.1644C11.4697 85.1644 12.3659 84.8606 12.5872 84.3821C13.0202 83.4462 12.4754 81.6022 12.4754 80.4288C12.4754 79.2553 12.3637 64.8245 12.3637 62.785C12.3637 60.7455 12.4196 55.4929 12.4196 54.5988C12.4196 53.7047 12.3841 52.2539 12.5173 51.7211C12.643 51.2182 13.278 53.2061 13.6069 54.0261C14.459 56.1495 16.1634 57.4486 17.3368 57.8956C18.5103 58.3426 19.7955 58.6221 21.2484 57.8956C22.7013 57.1692 23.3717 56.5826 23.3717 56.5826C23.3717 56.5826 23.7489 55.9539 23.707 57.2251C23.67 58.3477 23.9079 67.2015 24.154 69.9095C24.4893 73.5976 25.0062 78.7105 26.3892 81.0993C27.2686 82.6183 28.6481 82.5903 29.3228 82.4404C30.0772 82.2728 30.7798 81.81 30.9992 81.225C31.2506 80.5545 31.1808 79.8281 30.9573 79.381C30.7337 78.934 30.3962 78.6342 30.0214 78.012C29.2809 76.7827 28.1913 71.7955 28.0655 68.0097C28.0117 66.3891 27.7303 54.8782 27.7862 53.2577C27.8421 51.6373 28.1774 46.4406 28.345 45.0995C28.5126 43.7584 28.8479 43.4231 28.9038 42.6409C28.9597 41.8586 28.2333 40.9086 27.2834 40.6851C26.3334 40.4617 25.3835 40.4058 25.16 41.188C24.9365 41.9703 24.5454 42.585 24.5454 43.1997C24.5454 43.8143 23.9307 46.7759 23.5395 48.4523C23.1484 50.1287 21.6396 53.4255 20.5221 53.9285C19.4046 54.4314 18.0076 54.4314 17.0017 52.1962C15.9959 49.961 15.2137 47.1671 15.2137 45.6584C15.2137 44.1497 15.5489 43.9261 15.2137 43.2556C14.8784 42.585 13.8726 41.8586 13.4814 41.7469C13.0902 41.6351 12.6991 40.8529 12.1403 40.4058C11.5815 39.9587 10.3173 39.7783 9.90496 40.4057Z" fill="#00D1FF"/>
<path fill-rule="evenodd" clip-rule="evenodd" d="M87.8698 70.287C87.2272 69.7562 84.0561 70.748 81.8768 70.8737C80.3976 70.9591 78.9013 71.0413 75.5067 70.1612C71.7086 69.1765 69.9188 67.8423 69.9188 67.8423C69.9188 67.8423 70.0306 67.5908 70.282 67.2555C70.5902 66.8447 72.4891 63.5954 72.7686 62.897C73.048 62.1985 73.6767 60.8854 72.112 59.8516C70.5474 58.8179 69.1086 58.3988 66.7058 59.3208C64.303 60.2428 62.8502 62.8971 62.6266 63.8191C62.4031 64.7411 62.459 66.5292 62.8502 67.1439C63.2413 67.7585 63.437 67.9262 63.409 68.0938C63.381 68.2614 62.7104 68.8202 62.2075 68.904C61.7046 68.9878 61.3135 69.0157 61.2576 68.2334C61.2017 67.4512 61.4532 65.1042 61.3973 64.4895C61.3414 63.8749 59.7488 61.556 57.6814 60.7457C55.6139 59.9354 53.9655 59.6002 53.0155 60.4384C52.0655 61.2765 51.6465 62.8132 51.1715 65.216C50.6965 67.6188 50.1377 68.4571 49.5231 68.932C48.9085 69.4069 48.7687 69.6583 48.4614 69.1275C48.154 68.5967 47.6791 66.9482 47.4556 66.5292C47.232 66.1101 46.7012 65.8307 46.1983 65.7469C45.6954 65.6631 45.4998 65.6351 45.416 65.0483C45.3322 64.4616 44.9969 62.9249 43.5999 62.0309C42.2029 61.1368 39.884 60.8854 38.0679 61.9192C36.9165 62.5745 34.9946 63.8749 34.2402 66.585C33.4529 69.4133 33.7843 72.2336 34.6593 73.8492C35.749 75.8609 37.9282 76.4756 39.8839 76.1402C41.7041 75.8281 42.9294 75.0785 43.8793 74.2962C44.8292 73.514 44.8851 73.067 45.3321 73.2346C45.7791 73.4022 46.1703 73.8492 46.9806 74.1286C47.7908 74.408 48.8805 74.6315 50.2495 73.961C51.6185 73.2904 53.4345 71.3626 54.133 68.429C54.8315 65.4953 55.1947 64.2661 55.6417 64.1823C56.0887 64.0984 56.9269 64.5455 57.1504 65.1881C57.374 65.8306 57.3461 66.6967 57.2902 67.6467C57.2343 68.5967 57.2221 70.3945 58.1842 71.698C59.0503 72.8714 60.5033 73.8772 63.1295 72.7317C65.7558 71.5861 66.3984 70.9994 66.622 70.9156C66.8455 70.8318 67.1249 70.8597 67.4601 71.0273C67.7954 71.195 71.3437 72.8154 74.1935 73.3742C77.0433 73.9331 78.3899 74.0209 80.6196 73.6816C82.5474 73.3882 84.3355 72.8713 85.481 72.2567C86.6265 71.6421 88.5125 70.8178 87.8698 70.287ZM43.4882 67.1717C43.4288 67.9243 43.2927 68.3452 43.2927 68.6804C43.2927 69.0157 43.125 69.0157 42.9295 69.2952C42.7339 69.5746 42.9015 69.7701 42.7338 70.0774C42.5662 70.3848 41.7248 72.3406 39.2414 72.3685C38.5718 72.376 37.8724 71.9773 37.5929 71.4185C37.3135 70.8597 36.99 68.5742 38.0679 66.5012C39.1576 64.4058 40.3119 64.0705 40.8339 63.8749C41.4946 63.6273 42.0052 63.6889 42.5382 64.0146C43.5441 64.6293 43.572 66.1101 43.4882 67.1717ZM69.3379 62.7391C69.0275 63.4044 67.7217 64.9188 67.4042 65.2998C67.1249 65.6351 67.0093 65.8662 66.5879 65.7996C66.1666 65.7331 66.3884 64.5133 66.6101 63.9145C66.8319 63.3158 67.3252 62.5326 68.6337 61.6677C69.9422 60.8028 69.6484 62.0737 69.3379 62.7391Z" fill="#00D1FF"/>
</g>
</svg>
